<?xml version="1.0" encoding="utf-8"?>
<!-- Generator: Adobe Illustrator 26.0.3, SVG Export Plug-In . SVG Version: 6.00 Build 0)  -->
<svg version="1.1" xmlns="http://www.w3.org/2000/svg" xmlns:xlink="http://www.w3.org/1999/xlink" x="0px" y="0px"
	 viewBox="0 0 72 72" style="enable-background:new 0 0 72 72;" xml:space="preserve">
<style type="text/css">
	.st0{fill:#88CAC0;stroke:#000000;stroke-width:0.1296;}
	.st1{fill:#CCEECC;stroke:#000000;stroke-width:0.1296;}
	.st2{display:none;}
	.st3{display:inline;}
	.st4{fill:#EB6608;stroke:#000000;stroke-width:0.8099;}
	.st5{stroke:#000000;stroke-width:3.2398;}
	.st6{fill:none;stroke:#000000;stroke-width:0.8099;}
	.st7{fill:#EB6608;stroke:#000000;stroke-width:0.1296;}
	.st8{fill:none;stroke:#000000;stroke-width:0.1296;}
	.st9{stroke:#000000;stroke-width:0.5184;}
	.st10{fill:#00ABE7;stroke:#000000;stroke-width:0.1296;}
	.st11{stroke:#000000;stroke-width:0.1296;}
	.st12{fill:#EB6608;stroke:#000000;stroke-width:0.5786;}
	.st13{fill:#00ABE7;stroke:#000000;stroke-width:0.5786;}
</style>
<g id="Blech">
	<path id="Joch" class="st0" d="M0,36C0,16.12,16.12,0,36,0s36,16.12,36,36c0,19.88-16.12,36-36,36S0,55.88,0,36z M24.17,62.27
		c0,0,0-4.15,0-5.69c0-3.09-2.57-4.11-4.63-7.2c-2.06-3.09-0.51-7.71,1.54-4.24c3,5.06,8.6,8.35,14.91,8.35
		c6.31,0,11.92-3.29,14.91-8.35c2.06-3.47,3.6,1.15,1.54,4.24c-2.06,3.09-4.63,4.11-4.63,7.2c0,1.54,0,5.69,0,5.69
		C57.84,57.75,64.8,47.69,64.8,36c0-11.69-6.96-21.73-16.97-26.25c0,0,0,4.13,0,5.68c0,3.09,2.57,4.11,4.63,7.2
		c2.06,3.09,0.51,7.71-1.54,4.24c-2.99-5.06-8.6-8.35-14.91-8.35c-6.31,0-11.92,3.29-14.91,8.35c-2.06,3.47-3.6-1.15-1.54-4.24
		c2.06-3.09,4.63-4.11,4.63-7.2c0-1.54,0-5.68,0-5.68C14.16,14.27,7.2,24.31,7.2,36C7.2,47.69,14.16,57.75,24.17,62.27"/>
	<g id="Ankerblech">
		<path id="_x3C_Pfad_x3E_" class="st0" d="M36,51.43c8.52,0,15.43-6.91,15.43-15.43c0-8.52-6.91-15.43-15.43-15.43
			S20.57,27.48,20.57,36C20.57,44.52,27.48,51.43,36,51.43z"/>
		<path class="st1" d="M37.6,30.63V29.6h-3.2v1.03c-2.31,0.69-4,2.83-4,5.37c0,3.09,2.51,5.6,5.6,5.6s5.6-2.51,5.6-5.6
			C41.6,33.46,39.91,31.32,37.6,30.63z"/>
	</g>
</g>
<g id="Anker" class="st2">
	<g id="iAn1" class="st3">
		<path class="st4" d="M48.87-47.72c0-7.1-5.76-12.86-12.86-12.86c-7.1,0-12.86,5.76-12.86,12.86c0,7.1,5.76,12.86,12.86,12.86
			C43.11-34.86,48.87-40.62,48.87-47.72z"/>
		<path class="st5" d="M39.22-47.72c0-1.78-1.44-3.21-3.21-3.21c-1.77,0-3.21,1.44-3.21,3.21c0,1.77,1.44,3.21,3.21,3.21
			C37.79-44.5,39.22-45.94,39.22-47.72z"/>
	</g>
	<g id="iAp1" class="st3">
		<path class="st4" d="M48.87,119.42c0-7.1-5.76-12.85-12.86-12.85c-7.1,0-12.86,5.76-12.86,12.85c0,7.1,5.76,12.86,12.86,12.86
			C43.11,132.28,48.87,126.53,48.87,119.42z"/>
		<line class="st6" x1="26.92" y1="128.5" x2="45.1" y2="110.32"/>
		<line class="st6" x1="45.1" y1="128.5" x2="26.92" y2="110.32"/>
	</g>
</g>
<g id="Stromvert">
	<g id="iAp1_00000031182085786917845540000015283848882943105687_">
		<path class="st7" d="M49.53,36.27c-1.12-0.2-2.19,0.55-2.38,1.67c-0.2,1.12,0.55,2.19,1.67,2.38c1.12,0.2,2.19-0.55,2.38-1.67
			C51.39,37.54,50.65,36.47,49.53,36.27z"/>
		<line class="st8" x1="50.35" y1="39.98" x2="47.99" y2="36.61"/>
		<line class="st8" x1="50.85" y1="37.12" x2="47.48" y2="39.48"/>
	</g>
	<g id="iAn1_00000170270085821509713130000002599588271125123994_">
		<path class="st7" d="M23.19,31.63c-1.12-0.2-2.19,0.55-2.38,1.67c-0.2,1.12,0.55,2.19,1.67,2.38c1.12,0.2,2.19-0.55,2.38-1.67
			C25.06,32.89,24.31,31.83,23.19,31.63z"/>
		<path class="st9" d="M22.92,33.15c-0.28-0.05-0.55,0.14-0.6,0.42c-0.05,0.28,0.14,0.55,0.42,0.6c0.28,0.05,0.55-0.14,0.6-0.42
			C23.39,33.46,23.2,33.2,22.92,33.15z"/>
	</g>
	<g id="iAp1_00000044891305061368650890000007985596126717530260_">
		<path class="st7" d="M48.61,40.88c-0.98-0.57-2.24-0.23-2.81,0.75c-0.57,0.98-0.23,2.24,0.75,2.81c0.98,0.57,2.24,0.23,2.81-0.75
			C49.93,42.71,49.59,41.45,48.61,40.88z"/>
		<line class="st8" x1="48.11" y1="44.65" x2="47.05" y2="40.67"/>
		<line class="st8" x1="49.57" y1="42.13" x2="45.59" y2="43.19"/>
	</g>
	<g id="iAn1_00000155845372500069017790000000113844264813399955_">
		<path class="st7" d="M25.45,27.51c-0.98-0.57-2.24-0.23-2.81,0.75c-0.57,0.98-0.23,2.24,0.75,2.81c0.98,0.57,2.24,0.23,2.81-0.75
			C26.77,29.34,26.43,28.08,25.45,27.51z"/>
		<path class="st9" d="M24.68,28.85c-0.25-0.14-0.56-0.06-0.7,0.19c-0.14,0.25-0.06,0.56,0.19,0.7c0.25,0.14,0.56,0.06,0.7-0.19
			C25.01,29.3,24.93,28.99,24.68,28.85z"/>
	</g>
	<g id="iAp1_00000082357633207884162120000015044788159919422345_">
		<path class="st7" d="M46.17,44.9c-0.73-0.87-2.03-0.98-2.9-0.25c-0.87,0.73-0.98,2.03-0.25,2.9c0.73,0.87,2.03,0.98,2.9,0.25
			C46.79,47.07,46.9,45.77,46.17,44.9z"/>
		<line class="st8" x1="44.42" y1="48.27" x2="44.77" y2="44.17"/>
		<line class="st8" x1="46.64" y1="46.4" x2="42.55" y2="46.04"/>
	</g>
	<g id="iAn1_00000079477464516133216460000003222363477683690625_">
		<path class="st7" d="M28.98,24.41c-0.73-0.87-2.03-0.98-2.9-0.25c-0.87,0.73-0.98,2.03-0.25,2.9c0.73,0.87,2.03,0.98,2.9,0.25
			C29.6,26.58,29.71,25.28,28.98,24.41z"/>
		<path class="st9" d="M27.8,25.4c-0.18-0.22-0.51-0.25-0.72-0.06c-0.22,0.18-0.25,0.51-0.06,0.72c0.18,0.22,0.51,0.25,0.72,0.06
			C27.96,25.94,27.98,25.62,27.8,25.4z"/>
	</g>
	<g id="iAp1_00000011025748159234313960000011933107664358660004_">
		<path class="st7" d="M42.51,47.84c-0.39-1.07-1.57-1.62-2.64-1.23c-1.07,0.39-1.62,1.57-1.23,2.64c0.39,1.07,1.57,1.62,2.64,1.23
			C42.35,50.09,42.9,48.91,42.51,47.84z"/>
		<line class="st8" x1="39.71" y1="50.4" x2="41.44" y2="46.67"/>
		<line class="st8" x1="42.44" y1="49.41" x2="38.71" y2="47.67"/>
	</g>
	<g id="iAn1_00000103244378610421416620000015964981298216795265_">
		<path class="st7" d="M33.36,22.71c-0.39-1.07-1.57-1.62-2.64-1.23c-1.07,0.39-1.62,1.57-1.23,2.64c0.39,1.07,1.57,1.62,2.64,1.23
			C33.2,24.96,33.75,23.78,33.36,22.71z"/>
		<path class="st9" d="M31.91,23.24c-0.1-0.27-0.39-0.4-0.66-0.31c-0.27,0.1-0.4,0.39-0.31,0.66c0.1,0.27,0.39,0.4,0.66,0.31
			C31.87,23.8,32.01,23.5,31.91,23.24z"/>
	</g>
	<g id="iAp1_00000171685528097131203170000007323961274202873750_">
		<path class="st7" d="M38.06,49.35c0-1.14-0.92-2.06-2.06-2.06c-1.14,0-2.06,0.92-2.06,2.06c0,1.14,0.92,2.06,2.06,2.06
			C37.14,51.41,38.06,50.48,38.06,49.35z"/>
		<line class="st8" x1="34.55" y1="50.8" x2="37.46" y2="47.89"/>
		<line class="st8" x1="37.46" y1="50.8" x2="34.55" y2="47.89"/>
	</g>
	<g id="iAn1_00000043443808654883938790000014131563919011813530_">
		<path class="st7" d="M38.06,22.61c0-1.14-0.92-2.06-2.06-2.06c-1.14,0-2.06,0.92-2.06,2.06c0,1.14,0.92,2.06,2.06,2.06
			C37.14,24.66,38.06,23.74,38.06,22.61z"/>
		<path class="st9" d="M36.52,22.61c0-0.28-0.23-0.51-0.51-0.51c-0.28,0-0.51,0.23-0.51,0.51c0,0.28,0.23,0.51,0.51,0.51
			C36.29,23.12,36.52,22.89,36.52,22.61z"/>
	</g>
	<g id="iAp1_00000009586531385954253990000000009831629333717672_">
		<path class="st7" d="M33.36,49.24c0.39-1.07-0.16-2.25-1.23-2.64c-1.07-0.39-2.25,0.16-2.64,1.23c-0.39,1.07,0.16,2.25,1.23,2.64
			C31.79,50.86,32.97,50.31,33.36,49.24z"/>
		<line class="st8" x1="29.57" y1="49.41" x2="33.29" y2="47.67"/>
		<line class="st8" x1="32.3" y1="50.4" x2="30.56" y2="46.67"/>
	</g>
	<g id="iAn1_00000025423907888865737170000015587583301145899413_">
		<path class="st7" d="M42.51,24.12c0.39-1.07-0.16-2.25-1.23-2.64c-1.07-0.39-2.25,0.16-2.64,1.23c-0.39,1.07,0.16,2.25,1.23,2.64
			C40.94,25.73,42.12,25.18,42.51,24.12z"/>
		<path class="st9" d="M41.06,23.59c0.1-0.27-0.04-0.56-0.31-0.66c-0.27-0.1-0.56,0.04-0.66,0.31c-0.1,0.27,0.04,0.56,0.31,0.66
			C40.67,23.99,40.96,23.85,41.06,23.59z"/>
	</g>
	<g id="iAp1_00000029745185226145522450000013104129350106706831_">
		<path class="st7" d="M28.98,47.54c0.73-0.87,0.62-2.17-0.25-2.9c-0.87-0.73-2.17-0.62-2.9,0.25c-0.73,0.87-0.62,2.17,0.25,2.9
			C26.95,48.53,28.25,48.41,28.98,47.54z"/>
		<line class="st8" x1="25.36" y1="46.4" x2="29.46" y2="46.04"/>
		<line class="st8" x1="27.59" y1="48.27" x2="27.23" y2="44.17"/>
	</g>
	<g id="iAn1_00000121274900099746197620000000687556015521655196_">
		<path class="st7" d="M46.17,27.06c0.73-0.87,0.62-2.17-0.25-2.9c-0.87-0.73-2.17-0.62-2.9,0.25c-0.73,0.87-0.62,2.17,0.25,2.9
			C44.14,28.04,45.44,27.93,46.17,27.06z"/>
		<path class="st9" d="M44.99,26.06c0.18-0.22,0.15-0.54-0.06-0.72c-0.22-0.18-0.54-0.15-0.72,0.06c-0.18,0.22-0.15,0.54,0.06,0.72
			C44.48,26.31,44.81,26.28,44.99,26.06z"/>
	</g>
	<g id="iAp1_00000158024834860535007620000004679159059134018189_">
		<path class="st7" d="M25.45,44.44c0.98-0.57,1.32-1.83,0.75-2.81c-0.57-0.98-1.83-1.32-2.81-0.75c-0.98,0.57-1.32,1.83-0.75,2.81
			C23.21,44.67,24.47,45.01,25.45,44.44z"/>
		<line class="st8" x1="22.44" y1="42.13" x2="26.41" y2="43.19"/>
		<line class="st8" x1="23.89" y1="44.65" x2="24.96" y2="40.67"/>
	</g>
	<g id="iAn1_00000062162368195608855900000014737066372360173446_">
		<path class="st7" d="M48.61,31.07c0.98-0.57,1.32-1.83,0.75-2.81c-0.57-0.98-1.83-1.32-2.81-0.75c-0.98,0.57-1.32,1.83-0.75,2.81
			C46.37,31.3,47.63,31.64,48.61,31.07z"/>
		<path class="st9" d="M47.84,29.74c0.25-0.14,0.33-0.46,0.19-0.7c-0.14-0.25-0.46-0.33-0.7-0.19c-0.25,0.14-0.33,0.46-0.19,0.7
			C47.28,29.79,47.59,29.88,47.84,29.74z"/>
	</g>
	<g id="iAp1_00000002377896443176365430000002365080052332545667_">
		<path class="st7" d="M23.19,40.32c1.12-0.2,1.87-1.26,1.67-2.38c-0.2-1.12-1.26-1.87-2.38-1.67c-1.12,0.2-1.87,1.26-1.67,2.38
			C21.01,39.77,22.07,40.52,23.19,40.32z"/>
		<line class="st8" x1="21.15" y1="37.12" x2="24.52" y2="39.48"/>
		<line class="st8" x1="21.66" y1="39.98" x2="24.02" y2="36.61"/>
	</g>
	<g id="iAn1_00000018211990075258476200000009624990260174287497_">
		<path class="st7" d="M49.53,35.68c1.12-0.2,1.87-1.26,1.67-2.38c-0.2-1.12-1.26-1.87-2.38-1.67c-1.12,0.2-1.87,1.26-1.67,2.38
			C47.34,35.13,48.41,35.88,49.53,35.68z"/>
		<path class="st9" d="M49.26,34.16c0.28-0.05,0.47-0.32,0.42-0.6c-0.05-0.28-0.32-0.47-0.6-0.42c-0.28,0.05-0.47,0.32-0.42,0.6
			C48.71,34.02,48.98,34.21,49.26,34.16z"/>
	</g>
</g>
<g id="Erregung">
	<g id="ifSn">
		<path class="st10" d="M23.66,15.43c0-1.14-0.92-2.06-2.06-2.06s-2.06,0.92-2.06,2.06c0,1.14,0.92,2.06,2.06,2.06
			S23.66,16.56,23.66,15.43z"/>
		<path class="st11" d="M22.11,15.43c0-0.28-0.23-0.51-0.51-0.51c-0.28,0-0.51,0.23-0.51,0.51c0,0.28,0.23,0.51,0.51,0.51
			C21.88,15.94,22.11,15.71,22.11,15.43z"/>
	</g>
	<g id="ifSp">
		<path class="st10" d="M52.46,15.43c0-1.14-0.92-2.06-2.06-2.06c-1.14,0-2.06,0.92-2.06,2.06c0,1.14,0.92,2.06,2.06,2.06
			C51.54,17.49,52.46,16.56,52.46,15.43z"/>
		<line class="st8" x1="48.95" y1="16.88" x2="51.86" y2="13.97"/>
		<line class="st8" x1="51.86" y1="16.88" x2="48.95" y2="13.97"/>
	</g>
	<g id="ifNn">
		<path class="st10" d="M23.66,56.57c0,1.14-0.92,2.06-2.06,2.06s-2.06-0.92-2.06-2.06c0-1.14,0.92-2.06,2.06-2.06
			S23.66,55.44,23.66,56.57z"/>
		<path class="st11" d="M22.11,56.57c0,0.28-0.23,0.51-0.51,0.51c-0.28,0-0.51-0.23-0.51-0.51c0-0.28,0.23-0.51,0.51-0.51
			C21.88,56.06,22.11,56.29,22.11,56.57z"/>
	</g>
	<g id="ifNp">
		<path class="st10" d="M52.46,56.34c0,1.14-0.92,2.06-2.06,2.06c-1.14,0-2.06-0.92-2.06-2.06c0-1.14,0.92-2.06,2.06-2.06
			C51.54,54.29,52.46,55.21,52.46,56.34z"/>
		<line class="st8" x1="48.95" y1="54.89" x2="51.86" y2="57.8"/>
		<line class="st8" x1="51.86" y1="54.89" x2="48.95" y2="57.8"/>
	</g>
</g>
<g id="Zeiger" class="st2">
	<g class="st3">
		<path class="st12" d="M111.32,32.74L111.32,32.74l-175.75,0.02l0,0c-1.79,0-3.24,1.45-3.24,3.24c0,1.79,1.45,3.24,3.24,3.24l0,0
			l175.75-0.02l0,0"/>
		<path class="st12" d="M119.91,29.56c-4.51-1.36-7.61-2.61-11.2-4.07l-1.66-0.67c-1-0.4-2.13-0.28-3.02,0.32
			c-0.89,0.6-1.43,1.61-1.43,2.69v16.34c0,1.11,0.57,2.14,1.51,2.74c0.94,0.59,2.12,0.66,3.12,0.19c1.44-0.68,7.49-3.09,12.68-4.66
			c5.31-1.61,10.46-2.81,13.77-3.23c1.62-0.2,2.84-1.58,2.84-3.21c0-1.63-1.22-3.01-2.84-3.21
			C130.37,32.37,125.22,31.16,119.91,29.56z"/>
	</g>
	<g id="Suedpol" class="st3">
		<path class="st13" d="M32.74-137.93L32.74-137.93l0.02,67.01l0,0c0,1.79,1.45,3.24,3.24,3.24c1.79,0,3.24-1.45,3.24-3.24l0,0
			l-0.02-67.01l0,0"/>
		<path class="st13" d="M29.56-146.52c-1.36,4.51-2.61,7.61-4.06,11.19l-0.67,1.67c-0.4,1-0.28,2.13,0.32,3.02
			c0.6,0.89,1.61,1.43,2.69,1.43h16.34c1.11,0,2.14-0.57,2.74-1.51c0.59-0.94,0.66-2.12,0.19-3.12c-0.68-1.44-3.09-7.49-4.66-12.68
			c-1.61-5.31-2.81-10.46-3.23-13.77c-0.2-1.62-1.58-2.84-3.21-2.84c-1.63,0-3.01,1.22-3.21,2.84
			C32.37-156.98,31.17-151.83,29.56-146.52z"/>
	</g>
	<g id="Nordpol" class="st3">
		<path class="st13" d="M32.74,163.72L32.74,163.72l0.02,67.01l0,0c0,1.79,1.45,3.24,3.24,3.24c1.79,0,3.24-1.45,3.24-3.24l0,0
			l-0.02-67.02l0,0"/>
		<path class="st13" d="M29.56,155.13c-1.36,4.51-2.61,7.61-4.06,11.19l-0.67,1.67c-0.4,1-0.28,2.13,0.32,3.02
			c0.6,0.89,1.61,1.42,2.69,1.42h16.34c1.11,0,2.14-0.57,2.74-1.51c0.59-0.94,0.66-2.12,0.19-3.12c-0.68-1.44-3.09-7.49-4.66-12.68
			c-1.61-5.31-2.81-10.46-3.23-13.77c-0.2-1.62-1.58-2.83-3.21-2.83c-1.63,0-3.01,1.21-3.21,2.83
			C32.37,144.67,31.17,149.82,29.56,155.13z"/>
	</g>
</g>
</svg>
