<?xml version="1.0" encoding="utf-8"?>
<!-- Generator: Adobe Illustrator 26.3.1, SVG Export Plug-In . SVG Version: 6.00 Build 0)  -->
<svg version="1.1" id="Ebene_1" xmlns="http://www.w3.org/2000/svg" xmlns:xlink="http://www.w3.org/1999/xlink" x="0px" y="0px"
	 viewBox="0 0 36 36" style="enable-background:new 0 0 36 36;" xml:space="preserve">
<style type="text/css">
	.st0{fill:#8ACBC1;stroke:#000000;stroke-width:6.340000e-02;}
	.st1{fill:#B61772;stroke:#000000;stroke-width:0.1111;}
	.st2{stroke:#000000;stroke-width:0.1111;}
	.st3{fill:none;stroke:#000000;stroke-width:0.1111;}
	.st4{fill:#B61772;stroke:#000000;stroke-width:3.910000e-02;}
	.st5{fill:#33A939;stroke:#000000;stroke-width:0.1111;}
	.st6{fill:#33A939;stroke:#000000;stroke-width:3.910000e-02;}
	.st7{fill:#F1E511;stroke:#000000;stroke-width:3.910000e-02;}
	.st8{fill:#F1E511;stroke:#000000;stroke-width:0.1565;}
	.st9{stroke:#000000;stroke-width:0.1565;}
	.st10{fill:none;stroke:#000000;stroke-width:0.1565;}
	.st11{fill:#646363;stroke:#000000;stroke-width:3.910000e-02;}
</style>
<g id="Ronde">
	<path class="st0" d="M0,18C0,8.1,8.1,0,18,0s18,8.1,18,18s-8.1,18-18,18S0,27.9,0,18z M18,29.5c6.4,0,11.5-5.2,11.5-11.5
		S24.4,6.5,18,6.5C11.6,6.5,6.5,11.6,6.5,18S11.6,29.5,18,29.5z"/>
</g>
<g id="W_x5F_purple">
	<g>
		<circle class="st1" cx="6.5" cy="24.6" r="1.1"/>
		<g>
			<path class="st2" d="M6.3,24.4c0.1-0.1,0.3,0,0.4,0.1c0.1,0.1,0,0.3-0.1,0.4s-0.3,0-0.4-0.1C6.2,24.7,6.2,24.5,6.3,24.4z"/>
		</g>
	</g>
	<g>
		<circle class="st1" cx="29.5" cy="11.4" r="1.1"/>
		<line class="st3" x1="28.5" y1="11.1" x2="30.6" y2="11.6"/>
		<line class="st3" x1="29.2" y1="12.4" x2="29.8" y2="10.3"/>
	</g>
	<g>
		<path class="st4" d="M15.9,14.7L15.9,14.7l1.9,3.3l0,0c0,0.1,0.2,0.1,0.3,0.1c0.1,0,0.1-0.2,0.1-0.3l0,0l-1.9-3.3l0,0"/>
		<path class="st4" d="M15.4,14.3c0.1,0.3,0.1,0.5,0.1,0.7l0,0.1c0,0.1,0.1,0.1,0.1,0.1c0.1,0,0.1,0,0.2,0l0.9-0.5
			c0.1,0,0.1-0.1,0.1-0.2c0-0.1,0-0.1-0.1-0.2c-0.1-0.1-0.4-0.3-0.6-0.5c-0.2-0.2-0.5-0.5-0.6-0.6c-0.1-0.1-0.2-0.1-0.2-0.1
			c-0.1,0.1-0.1,0.1-0.1,0.2C15.3,13.7,15.4,14,15.4,14.3z"/>
	</g>
</g>
<g id="V_x5F_green">
	<g>
		<circle class="st5" cx="29.5" cy="24.6" r="1.1"/>
		<g>
			<path class="st2" d="M29.4,24.9c-0.1-0.1-0.2-0.2-0.1-0.4s0.2-0.2,0.4-0.1s0.2,0.2,0.1,0.4C29.7,24.9,29.5,25,29.4,24.9z"/>
		</g>
	</g>
	<g>
		<circle class="st5" cx="6.5" cy="11.4" r="1.1"/>
		<line class="st3" x1="6.8" y1="12.4" x2="6.2" y2="10.3"/>
		<line class="st3" x1="7.6" y1="11.1" x2="5.4" y2="11.6"/>
	</g>
	<g>
		<path class="st6" d="M16.2,21.5L16.2,21.5l1.9-3.3l0,0c0-0.1,0-0.2-0.1-0.3c-0.1,0-0.2,0-0.3,0.1l0,0l-1.9,3.3l0,0"/>
		<path class="st6" d="M16.1,22.1c0.2-0.2,0.4-0.3,0.5-0.5l0.1-0.1c0,0,0.1-0.1,0.1-0.2c0-0.1,0-0.1-0.1-0.2l-0.9-0.5
			c-0.1,0-0.1,0-0.2,0c-0.1,0-0.1,0.1-0.1,0.2c0,0.1-0.1,0.5-0.1,0.8c-0.1,0.3-0.2,0.6-0.2,0.8c0,0.1,0,0.2,0.1,0.2s0.2,0,0.2,0
			C15.6,22.5,15.9,22.3,16.1,22.1z"/>
	</g>
</g>
<g id="U_x5F_yellow">
	<g>
		<path class="st7" d="M8.1,18.2L8.1,18.2h9.7l0,0c0.1,0,0.2-0.1,0.2-0.2s-0.1-0.2-0.2-0.2l0,0H8.1l0,0"/>
		<path class="st7" d="M7.6,18.4c0.3,0.1,0.5,0.2,0.7,0.2l0.1,0c0.1,0,0.1,0,0.2,0s0.1-0.1,0.1-0.2v-1c0-0.1,0-0.1-0.1-0.2
			s-0.1,0-0.2,0c-0.1,0-0.4,0.2-0.8,0.3c-0.3,0.1-0.6,0.2-0.8,0.2c-0.1,0-0.2,0.1-0.2,0.2c0,0.1,0.1,0.2,0.2,0.2
			C6.9,18.2,7.2,18.3,7.6,18.4z"/>
	</g>
	<g>
		<circle class="st8" cx="18" cy="31.3" r="1.6"/>
		<g>
			<path class="st9" d="M17.6,31.3c0-0.2,0.2-0.4,0.4-0.4c0.2,0,0.4,0.2,0.4,0.4c0,0.2-0.2,0.4-0.4,0.4
				C17.8,31.7,17.6,31.5,17.6,31.3z"/>
		</g>
	</g>
	<g>
		<circle class="st8" cx="18" cy="4.7" r="1.6"/>
		<line class="st10" x1="16.9" y1="5.8" x2="19.1" y2="3.6"/>
		<line class="st10" x1="19.1" y1="5.8" x2="16.9" y2="3.6"/>
	</g>
</g>
<g id="Sum_x5F_grey">
	<g>
		<path class="st11" d="M1.7,18.2L1.7,18.2h16.1l0,0c0.1,0,0.2-0.1,0.2-0.2s-0.1-0.2-0.2-0.2l0,0H1.6l0,0"/>
		<path class="st11" d="M1.1,18.4c0.3,0.1,0.5,0.2,0.7,0.2l0.1,0c0.1,0,0.1,0,0.2,0c0.1,0,0.1-0.1,0.1-0.2v-1c0-0.1,0-0.1-0.1-0.2
			s-0.1,0-0.2,0c-0.1,0-0.4,0.2-0.8,0.3c-0.3,0.1-0.6,0.2-0.8,0.2c-0.1,0-0.2,0.1-0.2,0.2s0.1,0.2,0.2,0.2
			C0.5,18.2,0.8,18.3,1.1,18.4z"/>
	</g>
</g>
</svg>
