<?xml version="1.0" encoding="utf-8"?>
<!-- Generator: Adobe Illustrator 26.0.3, SVG Export Plug-In . SVG Version: 6.00 Build 0)  -->
<svg version="1.1" xmlns="http://www.w3.org/2000/svg" xmlns:xlink="http://www.w3.org/1999/xlink" x="0px" y="0px"
	 viewBox="0 0 36 36" style="enable-background:new 0 0 36 36;" xml:space="preserve">
<style type="text/css">
	.st0{fill:#8ACBC1;stroke:#000000;stroke-width:0.0634;}
	.st1{fill:#CCCCCC;stroke:#000000;stroke-width:0.0453;}
	.st2{fill:none;}
	.st3{fill:#00ABE7;stroke:#000000;stroke-width:0.0453;}
	.st4{display:none;}
	.st5{display:inline;}
	.st6{fill:#00ABE7;stroke:#000000;stroke-width:0.25;}
	.st7{fill:none;stroke:#000000;stroke-width:0.25;}
	.st8{stroke:#000000;stroke-width:0.25;}
	.st9{fill:#EC6608;stroke:#000000;stroke-width:0.0634;}
	.st10{fill:none;stroke:#000000;stroke-width:0.0634;}
	.st11{stroke:#000000;stroke-width:0.0634;}
	.st12{fill:#EC6608;stroke:#000000;stroke-width:0.0444;}
	.st13{fill:none;stroke:#000000;stroke-width:0.0444;}
	.st14{stroke:#000000;stroke-width:0.0444;}
	.st15{fill:#EC6608;stroke:#000000;stroke-width:0.0453;}
</style>
<g id="Statorronde">
	<path class="st0" d="M17.96,0c9.92,0,17.96,8.04,17.96,17.96c0,9.92-8.04,17.96-17.96,17.96C8.04,35.93,0,27.88,0,17.96
		C0,8.04,8.04,0,17.96,0z M6.47,17.96c0,6.35,5.15,11.5,11.5,11.5c6.35,0,11.5-5.15,11.5-11.5c0-6.35-5.15-11.5-11.5-11.5
		C11.61,6.46,6.47,11.61,6.47,17.96z"/>
</g>
<g id="Rotor">
	<path class="st0" d="M17.95,28.81c5.95,0,10.78-4.83,10.78-10.78c0-5.95-4.83-10.78-10.78-10.78C12,7.25,7.17,12.08,7.17,18.03
		C7.17,23.98,12,28.81,17.95,28.81z"/>
	<path class="st1" d="M19.3,14.74v-1.02h-2.87v1.02c-1.27,0.55-2.16,1.82-2.16,3.29c0,1.98,1.61,3.59,3.59,3.59
		c1.98,0,3.59-1.61,3.59-3.59C21.46,16.56,20.57,15.29,19.3,14.74z"/>
	<circle class="st2" cx="17.95" cy="18.03" r="10.78"/>
</g>
<g id="PM">
	<g>
		<path class="st3" d="M26.18,20.6c-1.09,3.51-4.37,6.05-8.23,6.05c-3.87,0-7.14-2.54-8.23-6.05l-2.06,0.64
			c1.37,4.38,5.46,7.56,10.29,7.56c4.83,0,8.92-3.18,10.29-7.56L26.18,20.6z"/>
		<path class="st3" d="M17.95,9.41c3.87,0,7.14,2.54,8.23,6.05l2.06-0.64c-1.37-4.38-5.46-7.56-10.29-7.56
			c-4.83,0-8.92,3.18-10.29,7.56l2.06,0.64C10.81,11.95,14.08,9.41,17.95,9.41z"/>
	</g>
</g>
<g id="RotorFlux">
	<g>
		<path class="st3" d="M17.61,9L17.61,9l0,19.81l0,0c0,0.14,0.11,0.25,0.25,0.25c0.14,0,0.25-0.11,0.25-0.25l0,0l0-19.81l0,0"/>
		<path class="st3" d="M17.36,8.33c-0.11,0.35-0.2,0.6-0.32,0.88l-0.05,0.13c-0.03,0.08-0.02,0.17,0.02,0.24
			c0.05,0.07,0.13,0.11,0.21,0.11h1.28c0.09,0,0.17-0.04,0.21-0.12c0.05-0.07,0.05-0.17,0.01-0.24c-0.05-0.11-0.24-0.59-0.36-0.99
			c-0.13-0.42-0.22-0.82-0.25-1.08c-0.02-0.13-0.12-0.22-0.25-0.22c-0.13,0-0.24,0.1-0.25,0.22C17.58,7.51,17.48,7.91,17.36,8.33z"
			/>
	</g>
</g>
<g id="RotorWicklg" class="st4">
	<g class="st5">
		<g>
			<path class="st6" d="M44.21,36.39c0-3.13,2.54-5.67,5.67-5.67c3.13,0,5.67,2.54,5.67,5.67c0,3.13-2.54,5.67-5.67,5.67
				C46.75,42.06,44.21,39.52,44.21,36.39z"/>
			<line class="st7" x1="53.89" y1="32.38" x2="45.87" y2="40.4"/>
			<line class="st7" x1="53.89" y1="40.4" x2="45.87" y2="32.38"/>
		</g>
		<g>
			<g>
				<path class="st6" d="M-18.86-3.3c1.57-2.71,5.03-3.64,7.74-2.08c2.71,1.57,3.64,5.03,2.08,7.75c-1.57,2.71-5.03,3.64-7.74,2.08
					C-19.5,2.88-20.43-0.59-18.86-3.3z"/>
			</g>
			<path class="st8" d="M-15.18-1.17c0.39-0.68,1.26-0.91,1.94-0.52c0.68,0.39,0.91,1.26,0.52,1.94c-0.39,0.68-1.26,0.91-1.94,0.52
				C-15.34,0.37-15.57-0.49-15.18-1.17z"/>
		</g>
	</g>
	<g class="st5">
		<g>
			<path class="st6" d="M44.21-0.46c0-3.13,2.54-5.67,5.67-5.67c3.13,0,5.67,2.54,5.67,5.67c0,3.13-2.54,5.67-5.67,5.67
				C46.75,5.21,44.21,2.67,44.21-0.46z"/>
			<line class="st7" x1="53.89" y1="-4.47" x2="45.87" y2="3.55"/>
			<line class="st7" x1="53.89" y1="3.55" x2="45.87" y2="-4.47"/>
		</g>
		<g>
			<g>
				<path class="st6" d="M-18.86,39.22c-1.57-2.71-0.64-6.18,2.07-7.75c2.71-1.57,6.18-0.64,7.75,2.08
					c1.57,2.71,0.64,6.18-2.08,7.75C-13.83,42.86-17.29,41.93-18.86,39.22z"/>
			</g>
			<path class="st8" d="M-15.18,37.1c-0.39-0.68-0.16-1.54,0.52-1.94c0.68-0.39,1.54-0.16,1.94,0.52c0.39,0.68,0.16,1.54-0.52,1.94
				C-13.92,38.01-14.79,37.77-15.18,37.1z"/>
		</g>
	</g>
</g>
<g id="Statorw">
	<g>
		<path class="st9" d="M17.96,32.33c-0.79,0-1.44-0.64-1.44-1.44c0-0.79,0.64-1.44,1.44-1.44c0.79,0,1.44,0.64,1.44,1.44
			C19.4,31.69,18.76,32.33,17.96,32.33z"/>
		<line class="st10" x1="16.95" y1="29.88" x2="18.98" y2="31.91"/>
		<line class="st10" x1="18.98" y1="29.88" x2="16.95" y2="31.91"/>
	</g>
	<g>
		<g>
			<path class="st9" d="M17.96,6.46c-0.79,0-1.44-0.64-1.44-1.44c0-0.79,0.64-1.44,1.44-1.44c0.79,0,1.44,0.64,1.44,1.44
				C19.4,5.82,18.76,6.46,17.96,6.46z"/>
		</g>
		<path class="st11" d="M17.96,5.39c-0.2,0-0.36-0.16-0.36-0.36c0-0.2,0.16-0.36,0.36-0.36c0.2,0,0.36,0.16,0.36,0.36
			C18.32,5.22,18.16,5.39,17.96,5.39z"/>
	</g>
	<g>
		<path class="st12" d="M5.89,24.93c-0.28-0.48-0.11-1.1,0.37-1.37c0.48-0.28,1.1-0.11,1.37,0.37c0.28,0.48,0.11,1.1-0.37,1.37
			C6.78,25.58,6.17,25.41,5.89,24.93z"/>
		<line class="st13" x1="7.02" y1="23.46" x2="6.5" y2="25.4"/>
		<line class="st13" x1="7.73" y1="24.69" x2="5.79" y2="24.17"/>
	</g>
	<g>
		<g>
			<path class="st12" d="M28.29,12c-0.28-0.48-0.11-1.1,0.37-1.37c0.48-0.28,1.1-0.11,1.37,0.37c0.28,0.48,0.11,1.1-0.37,1.37
				C29.19,12.64,28.57,12.48,28.29,12z"/>
		</g>
		<path class="st14" d="M28.95,11.62c-0.07-0.12-0.03-0.27,0.09-0.34c0.12-0.07,0.27-0.03,0.34,0.09c0.07,0.12,0.03,0.27-0.09,0.34
			C29.17,11.78,29.02,11.74,28.95,11.62z"/>
	</g>
	<g>
		<path class="st12" d="M30.04,24.93c-0.28,0.48-0.89,0.65-1.37,0.37c-0.48-0.28-0.65-0.89-0.37-1.37c0.28-0.48,0.89-0.65,1.37-0.37
			C30.15,23.83,30.32,24.45,30.04,24.93z"/>
		<line class="st13" x1="28.19" y1="24.69" x2="30.14" y2="24.17"/>
		<line class="st13" x1="28.91" y1="23.46" x2="29.43" y2="25.4"/>
	</g>
	<g>
		<g>
			<path class="st12" d="M7.63,12c-0.28,0.48-0.89,0.65-1.37,0.37c-0.48-0.28-0.65-0.89-0.37-1.37c0.28-0.48,0.89-0.65,1.37-0.37
				C7.75,10.9,7.91,11.51,7.63,12z"/>
		</g>
		<path class="st14" d="M6.98,11.62c-0.07,0.12-0.22,0.16-0.34,0.09s-0.16-0.22-0.09-0.34c0.07-0.12,0.22-0.16,0.34-0.09
			C7.01,11.34,7.05,11.5,6.98,11.62z"/>
	</g>
	<g>
		<path class="st15" d="M4.75,17.71L4.75,17.71l-4.03,0l0,0c-0.14,0-0.25,0.11-0.25,0.25c0,0.14,0.11,0.25,0.25,0.25l0,0l4.03,0l0,0
			"/>
		<path class="st15" d="M5.42,17.46c-0.35-0.11-0.6-0.2-0.88-0.32l-0.13-0.05c-0.08-0.03-0.17-0.02-0.24,0.02
			c-0.07,0.05-0.11,0.13-0.11,0.21v1.28c0,0.09,0.04,0.17,0.12,0.21c0.07,0.05,0.17,0.05,0.24,0.01c0.11-0.05,0.59-0.24,0.99-0.36
			c0.42-0.13,0.82-0.22,1.08-0.25c0.13-0.02,0.22-0.12,0.22-0.25c0-0.13-0.1-0.24-0.22-0.25C6.24,17.68,5.84,17.58,5.42,17.46z"/>
	</g>
	<g>
		<path class="st15" d="M33.74,17.71L33.74,17.71l-4.28,0l0,0c-0.14,0-0.25,0.11-0.25,0.25c0,0.14,0.11,0.25,0.25,0.25l0,0l4.28,0
			l0,0"/>
		<path class="st15" d="M34.41,17.46c-0.35-0.11-0.6-0.2-0.88-0.32l-0.13-0.05c-0.08-0.03-0.17-0.02-0.24,0.02
			c-0.07,0.05-0.11,0.13-0.11,0.21v1.28c0,0.09,0.04,0.17,0.12,0.21c0.07,0.05,0.17,0.05,0.24,0.01c0.11-0.05,0.59-0.24,0.99-0.36
			c0.42-0.13,0.82-0.22,1.08-0.25c0.13-0.02,0.22-0.12,0.22-0.25c0-0.13-0.1-0.24-0.22-0.25C35.23,17.68,34.83,17.58,34.41,17.46z"
			/>
	</g>
</g>
</svg>
