<?xml version="1.0" encoding="utf-8"?>
<!-- Generator: Adobe Illustrator 26.5.0, SVG Export Plug-In . SVG Version: 6.00 Build 0)  -->
<svg version="1.1" id="Ebene_1" xmlns="http://www.w3.org/2000/svg" xmlns:xlink="http://www.w3.org/1999/xlink" x="0px" y="0px"
	 viewBox="0 0 35.9 35.9" style="enable-background:new 0 0 35.9 35.9;" xml:space="preserve">
<style type="text/css">
	.st0{fill:#8ACBC1;stroke:#000000;stroke-width:6.338000e-02;}
	.st1{fill:#FFFFFF;stroke:#000000;stroke-width:6.338000e-02;}
	.st2{fill:#FCFCFC;stroke:#000000;stroke-width:6.338000e-02;stroke-linejoin:round;}
	.st3{fill:#FCFCFC;stroke:#000000;stroke-width:6.338000e-02;}
	.st4{fill:#00ABE7;stroke:#000000;stroke-width:5.323920e-02;}
	.st5{fill:none;stroke:#000000;stroke-width:5.323920e-02;}
	.st6{fill:#1D1D1B;stroke:#000000;stroke-width:5.323920e-02;}
	.st7{fill:#00ABE7;stroke:#000000;stroke-width:7.605600e-02;}
	.st8{fill:none;stroke:#000000;stroke-width:7.605600e-02;}
	.st9{fill:#1D1D1B;stroke:#000000;stroke-width:7.605600e-02;}
	.st10{fill:#00ABE7;stroke:#000000;stroke-width:4.563360e-02;}
	.st11{fill:#EC6608;stroke:#000000;stroke-width:8.873200e-02;}
	.st12{fill:none;stroke:#000000;stroke-width:8.873200e-02;}
	.st13{fill:#1D1D1B;stroke:#000000;stroke-width:8.873200e-02;}
	.st14{fill:#EC6608;stroke:#000000;stroke-width:6.338000e-02;}
	.st15{fill:none;stroke:#000000;stroke-width:6.338000e-02;}
	.st16{fill:#1D1D1B;stroke:#000000;stroke-width:6.338000e-02;}
	.st17{fill:#EC6608;stroke:#000000;stroke-width:4.563360e-02;}
</style>
<g id="Statorronde">
	<circle class="st0" cx="18" cy="18" r="18"/>
	<path class="st1" d="M6.5,18c0,6.4,5.1,11.5,11.5,11.5S29.5,24.3,29.5,18S24.3,6.5,18,6.5S6.5,11.6,6.5,18z"/>
</g>
<g id="Rotor">
	<g>
		<path class="st0" d="M18.9,28.7c5.9-0.5,10.3-5.7,9.8-11.7C28.2,11.1,23,6.7,17,7.2C11.1,7.8,6.7,13,7.2,18.9S13,29.2,18.9,28.7
			L18.9,28.7z"/>
		
			<rect x="16.2" y="12.9" transform="matrix(0.9962 -8.715574e-02 8.715574e-02 0.9962 -1.1867 1.5931)" class="st2" width="2.9" height="2.9"/>
		<path class="st3" d="M18.3,21.5c2-0.2,3.4-1.9,3.3-3.9c-0.2-2-1.9-3.4-3.9-3.3s-3.4,1.9-3.3,3.9C14.6,20.3,16.3,21.7,18.3,21.5
			L18.3,21.5z"/>
	</g>
</g>
<g id="Rotorw">
	<g>
		<g>
			<path class="st4" d="M10.7,13.9c0.1,0.7-0.4,1.3-1.1,1.3s-1.3-0.4-1.3-1.1s0.4-1.3,1.1-1.3C10.1,12.7,10.7,13.2,10.7,13.9z"/>
			<line class="st5" x1="8.7" y1="15" x2="10.3" y2="13.1"/>
			<line class="st5" x1="8.6" y1="13.2" x2="10.4" y2="14.8"/>
		</g>
		<g>
			<path class="st4" d="M27.5,22.4c-0.3,0.6-1,0.9-1.6,0.6c-0.6-0.3-0.9-1-0.6-1.6c0.3-0.6,1-0.9,1.6-0.6
				C27.6,21.1,27.8,21.8,27.5,22.4z"/>
			<path class="st6" d="M26.7,22c-0.1,0.2-0.3,0.2-0.4,0.1c-0.2-0.1-0.2-0.3-0.1-0.4c0.1-0.2,0.3-0.2,0.4-0.1
				C26.7,21.7,26.8,21.9,26.7,22z"/>
		</g>
	</g>
	<g>
		<g>
			<path class="st7" d="M18.9,8.5c0.1,0.9-0.6,1.8-1.6,1.9s-1.8-0.6-1.9-1.6C15.4,7.9,16.1,7,17,6.9C17.9,6.9,18.8,7.6,18.9,8.5
				L18.9,8.5z"/>
			<line class="st8" x1="16" y1="10" x2="18.3" y2="7.3"/>
			<line class="st8" x1="15.8" y1="7.6" x2="18.5" y2="9.8"/>
		</g>
		<g>
			<path class="st7" d="M18.9,29c-0.9,0.1-1.8-0.6-1.9-1.6s0.6-1.8,1.6-1.9c0.9-0.1,1.8,0.6,1.9,1.6C20.6,28.1,19.9,28.9,18.9,29
				L18.9,29z"/>
			<path class="st9" d="M18.8,27.7c-0.2,0-0.4-0.2-0.5-0.4c0-0.2,0.2-0.4,0.4-0.5c0.2,0,0.4,0.2,0.5,0.4
				C19.2,27.5,19.1,27.7,18.8,27.7z"/>
		</g>
	</g>
	<g>
		<g>
			<path class="st4" d="M24.4,12.7c-0.1-0.7,0.4-1.3,1.1-1.3c0.7-0.1,1.3,0.4,1.3,1.1c0.1,0.7-0.4,1.3-1.1,1.3
				C25.1,13.9,24.5,13.4,24.4,12.7z"/>
			<line class="st5" x1="26.4" y1="11.7" x2="24.8" y2="13.5"/>
			<line class="st5" x1="26.6" y1="13.4" x2="24.7" y2="11.8"/>
		</g>
		<g>
			<path class="st4" d="M9.3,24c-0.4-0.6-0.3-1.3,0.3-1.7c0.6-0.4,1.3-0.3,1.7,0.3c0.4,0.6,0.3,1.3-0.3,1.7
				C10.5,24.7,9.7,24.6,9.3,24z"/>
			<path class="st6" d="M10.1,23.5c-0.1-0.1-0.1-0.3,0.1-0.4c0.1-0.1,0.3-0.1,0.4,0.1c0.1,0.1,0.1,0.3-0.1,0.4S10.2,23.6,10.1,23.5z
				"/>
		</g>
	</g>
	<g>
		<path class="st10" d="M25.2,17.6L25.2,17.6l3.6-0.3l0,0c0.1,0,0.2-0.1,0.2-0.3s-0.1-0.2-0.3-0.2l0,0l-3.6,0.3l0,0"/>
		<path class="st10" d="M24.5,17.9c0.4,0.1,0.6,0.2,0.9,0.2l0.1,0c0.1,0,0.2,0,0.2,0s0.1-0.1,0.1-0.2l-0.1-1.3
			c0-0.1-0.1-0.2-0.1-0.2c-0.1,0-0.2,0-0.2,0c-0.1,0.1-0.6,0.3-1,0.4c-0.4,0.2-0.8,0.3-1.1,0.3c-0.1,0-0.2,0.1-0.2,0.3
			c0,0.1,0.1,0.2,0.2,0.2C23.7,17.8,24.1,17.8,24.5,17.9L24.5,17.9z"/>
	</g>
	<g>
		<path class="st10" d="M8.9,19L8.9,19l3.3-0.3l0,0c0.1,0,0.2-0.1,0.2-0.3s-0.1-0.2-0.3-0.2l0,0l-3.3,0.3l0,0"/>
		<path class="st10" d="M8.3,19.3c0.4,0.1,0.6,0.2,0.9,0.2l0.1,0c0.1,0,0.2,0,0.2,0c0.1-0.1,0.1-0.1,0.1-0.2l-0.1-1.3
			c0-0.1-0.1-0.2-0.1-0.2c-0.1,0-0.2,0-0.2,0c-0.1,0.1-0.6,0.3-1,0.4c-0.4,0.2-0.8,0.3-1.1,0.3c-0.1,0-0.2,0.1-0.2,0.3
			c0,0.1,0.1,0.2,0.2,0.2C7.5,19.2,7.9,19.2,8.3,19.3L8.3,19.3z"/>
	</g>
</g>
<g id="Statorw">
	<g>
		<path class="st11" d="M18,32.9c-1.1,0-2-0.9-2-2s0.9-2,2-2c1.1,0,2,0.9,2,2S19.1,32.9,18,32.9z"/>
		<line class="st12" x1="16.5" y1="29.5" x2="19.4" y2="32.3"/>
		<line class="st12" x1="19.4" y1="29.5" x2="16.5" y2="32.3"/>
	</g>
	<g>
		<path class="st11" d="M18,7.1c-1.1,0-2-0.9-2-2c0-1.1,0.9-2,2-2c1.1,0,2,0.9,2,2S19.1,7.1,18,7.1z"/>
		<path class="st13" d="M18,5.5c-0.3,0-0.5-0.2-0.5-0.5s0.2-0.5,0.5-0.5s0.5,0.2,0.5,0.5S18.2,5.5,18,5.5z"/>
	</g>
	<g>
		<path class="st14" d="M5.5,25.2c-0.4-0.7-0.2-1.6,0.5-2c0.7-0.4,1.6-0.2,2,0.5c0.4,0.7,0.2,1.6-0.5,2C6.8,26.1,5.9,25.8,5.5,25.2z
			"/>
		<line class="st15" x1="7.1" y1="23" x2="6.4" y2="25.8"/>
		<line class="st15" x1="8.2" y1="24.8" x2="5.4" y2="24.1"/>
	</g>
	<g>
		<path class="st14" d="M27.9,12.2c-0.4-0.7-0.2-1.6,0.5-2c0.7-0.4,1.6-0.2,2,0.5c0.4,0.7,0.2,1.6-0.5,2
			C29.2,13.1,28.3,12.9,27.9,12.2L27.9,12.2z"/>
		<path class="st16" d="M28.9,11.7c-0.1-0.2,0-0.4,0.1-0.5c0.2-0.1,0.4,0,0.5,0.1c0.1,0.2,0,0.4-0.1,0.5
			C29.2,11.9,29,11.9,28.9,11.7z"/>
	</g>
	<g>
		<path class="st14" d="M30.4,25.2c-0.4,0.7-1.3,0.9-2,0.5s-0.9-1.3-0.5-2c0.4-0.7,1.3-0.9,2-0.5C30.6,23.6,30.8,24.5,30.4,25.2z"/>
		<line class="st15" x1="27.8" y1="24.8" x2="30.6" y2="24.1"/>
		<line class="st15" x1="28.8" y1="23" x2="29.5" y2="25.8"/>
	</g>
	<g>
		<path class="st14" d="M8,12.2c-0.4,0.7-1.3,0.9-2,0.5c-0.7-0.4-0.9-1.3-0.5-2c0.4-0.7,1.3-0.9,2-0.5S8.4,11.5,8,12.2z"/>
		<path class="st16" d="M7.1,11.7c-0.1,0.2-0.3,0.2-0.5,0.1c-0.2-0.1-0.2-0.3-0.1-0.5s0.3-0.2,0.5-0.1C7.1,11.3,7.2,11.5,7.1,11.7z"
			/>
	</g>
	<g>
		<path class="st17" d="M4.8,17.7H1.4c-0.1,0-0.3,0.1-0.3,0.3c0,0.1,0.1,0.3,0.3,0.3h3.3"/>
		<path class="st17" d="M5.4,17.5c-0.4-0.1-0.6-0.2-0.9-0.3l-0.1-0.1c-0.1,0-0.2,0-0.2,0c-0.1,0-0.1,0.1-0.1,0.2v1.3
			c0,0.1,0,0.2,0.1,0.2c0.1,0,0.2,0.1,0.2,0c0.1-0.1,0.6-0.2,1-0.4c0.4-0.1,0.8-0.2,1.1-0.3c0.1,0,0.2-0.1,0.2-0.3
			c0-0.1-0.1-0.2-0.2-0.3C6.2,17.7,5.8,17.6,5.4,17.5L5.4,17.5z"/>
	</g>
	<g>
		<path class="st17" d="M32.8,17.7h-3.3c-0.1,0-0.3,0.1-0.3,0.3c0,0.1,0.1,0.3,0.3,0.3h3.3"/>
		<path class="st17" d="M33.5,17.5c-0.4-0.1-0.6-0.2-0.9-0.3l-0.1-0.1c-0.1,0-0.2,0-0.2,0c-0.1,0-0.1,0.1-0.1,0.2v1.3
			c0,0.1,0,0.2,0.1,0.2c0.1,0,0.2,0.1,0.2,0c0.1-0.1,0.6-0.2,1-0.4c0.4-0.1,0.8-0.2,1.1-0.3c0.1,0,0.2-0.1,0.2-0.3
			c0-0.1-0.1-0.2-0.2-0.3C34.3,17.7,33.9,17.6,33.5,17.5L33.5,17.5z"/>
	</g>
</g>
</svg>
