<?xml version="1.0" encoding="utf-8"?>
<!-- Generator: Adobe Illustrator 27.4.1, SVG Export Plug-In . SVG Version: 6.00 Build 0)  -->
<svg version="1.1" xmlns="http://www.w3.org/2000/svg" xmlns:xlink="http://www.w3.org/1999/xlink" x="0px" y="0px"
	 viewBox="0 0 147.4 147.4" style="enable-background:new 0 0 147.4 147.4;" xml:space="preserve">
<style type="text/css">
	.st0{fill:#8ACBC1;stroke:#000000;stroke-width:0.25;}
	.st1{fill:#FFFFFF;stroke:#000000;stroke-width:0.25;}
	.st2{fill:#FCFCFC;stroke:#000000;stroke-width:0.25;stroke-linejoin:round;}
	.st3{fill:#FCFCFC;stroke:#000000;stroke-width:0.25;}
	.st4{fill:#00ABE7;stroke:#000000;stroke-width:0.17;}
	.st5{fill:none;stroke:#000000;stroke-width:0.2125;}
	.st6{stroke:#000000;stroke-width:0.17;}
	.st7{fill:#00ABE7;stroke:#000000;stroke-width:0.24;}
	.st8{fill:none;stroke:#000000;stroke-width:0.3;}
	.st9{stroke:#000000;stroke-width:0.24;}
	.st10{fill:#00ABE7;stroke:#000000;stroke-width:0.1786;}
	.st11{fill:#6A534E;}
	.st12{fill:#EC6608;stroke:#000000;stroke-width:0.282;}
	.st13{fill:none;stroke:#000000;stroke-width:0.3525;}
	.st14{stroke:#000000;stroke-width:0.282;}
	.st15{fill:#EC6608;stroke:#000000;stroke-width:0.2;}
	.st16{fill:none;stroke:#000000;stroke-width:0.25;}
	.st17{stroke:#000000;stroke-width:0.2;}
	.st18{fill:#EC6608;stroke:#000000;stroke-width:0.1786;}
</style>
<g id="Statorronde">
	<ellipse transform="matrix(0.6154 -0.7882 0.7882 0.6154 -29.7471 86.436)" class="st0" cx="73.7" cy="73.7" rx="70.9" ry="70.9"/>
	<path class="st1" d="M28.3,73.7c0,25,20.3,45.4,45.4,45.4c25,0,45.4-20.3,45.4-45.4c0-25-20.3-45.4-45.4-45.4
		C48.7,28.3,28.3,48.7,28.3,73.7z"/>
</g>
<g id="Rotor">
	<g>
		<g>
			<path class="st0" d="M98.1,108.5c19.2-13.5,23.9-40,10.4-59.2c-13.5-19.2-40-23.9-59.2-10.4c-19.2,13.5-23.9,40-10.4,59.2
				C52.3,117.3,78.8,122,98.1,108.5z"/>
			
				<rect x="59.9" y="56.4" transform="matrix(0.8192 -0.5736 0.5736 0.8192 -23.7588 48.834)" class="st2" width="11.3" height="11.3"/>
			<path class="st3" d="M81.8,85.3c6.4-4.5,8-13.3,3.5-19.7c-4.5-6.4-13.3-8-19.7-3.5c-6.4,4.5-8,13.3-3.5,19.7
				C66.6,88.2,75.4,89.8,81.8,85.3z"/>
		</g>
	</g>
</g>
<g id="Rotorw">
	<g>
		<g>
			<path class="st4" d="M40.1,74.7c1.2,1.7,0.8,4.1-0.9,5.4c-1.7,1.2-4.1,0.8-5.4-0.9c-1.2-1.7-0.8-4.1,0.9-5.4
				C36.5,72.5,38.9,73,40.1,74.7z"/>
			<line class="st5" x1="36.3" y1="80.7" x2="37.7" y2="73.1"/>
			<line class="st5" x1="33.2" y1="76.2" x2="40.8" y2="77.6"/>
		</g>
		<g>
			<g>
				<path class="st4" d="M114.2,70.2c0.2,2.1-1.4,4-3.5,4.2c-2.1,0.2-4-1.4-4.2-3.5c-0.2-2.1,1.4-4,3.5-4.2
					C112.2,66.5,114.1,68,114.2,70.2z"/>
			</g>
			<path class="st6" d="M111.4,70.4c0,0.5-0.3,1-0.9,1c-0.5,0-1-0.3-1-0.9c0-0.5,0.3-1,0.9-1C110.8,69.5,111.3,69.9,111.4,70.4z"/>
		</g>
	</g>
	<g>
		<g>
			<path class="st7" d="M57,40.4c1.7,2.5,1.1,5.9-1.3,7.6c-2.5,1.7-5.9,1.1-7.6-1.3c-1.7-2.5-1.1-5.9,1.3-7.6
				C51.9,37.3,55.3,37.9,57,40.4z"/>
			<line class="st8" x1="51.6" y1="48.9" x2="53.5" y2="38.2"/>
			<line class="st8" x1="47.2" y1="42.6" x2="57.9" y2="44.5"/>
		</g>
		<g>
			<g>
				<path class="st7" d="M98,108.3c-2.5,1.7-5.9,1.1-7.6-1.3c-1.7-2.5-1.1-5.9,1.3-7.6c2.5-1.7,5.9-1.1,7.6,1.3
					C101,103.2,100.4,106.6,98,108.3z"/>
			</g>
			<path class="st9" d="M95.6,105c-0.6,0.4-1.5,0.3-1.9-0.3c-0.4-0.6-0.3-1.5,0.3-1.9c0.6-0.4,1.5-0.3,1.9,0.3
				C96.4,103.7,96.2,104.6,95.6,105z"/>
		</g>
	</g>
	<g>
		<g>
			<path class="st4" d="M86.1,42.5c-1.2-1.7-0.8-4.1,0.9-5.4c1.7-1.2,4.1-0.8,5.4,0.9c1.2,1.7,0.8,4.1-0.9,5.4
				C89.7,44.7,87.3,44.3,86.1,42.5z"/>
			<line class="st5" x1="89.9" y1="36.5" x2="88.6" y2="44.1"/>
			<line class="st5" x1="93.1" y1="41" x2="85.5" y2="39.6"/>
		</g>
		<g>
			<g>
				<path class="st4" d="M56.5,110.6c-1.9-0.9-2.8-3.2-1.9-5.1c0.9-1.9,3.2-2.8,5.1-1.9c1.9,0.9,2.8,3.2,1.9,5.1
					C60.7,110.7,58.4,111.5,56.5,110.6z"/>
			</g>
			<path class="st6" d="M57.7,108c-0.5-0.2-0.7-0.8-0.5-1.3c0.2-0.5,0.8-0.7,1.3-0.5c0.5,0.2,0.7,0.8,0.5,1.3
				C58.8,108,58.2,108.2,57.7,108z"/>
		</g>
	</g>
	<g>
		<path class="st10" d="M97.6,58.3L97.6,58.3l11.6-8.1l0,0c0.5-0.3,0.6-0.9,0.2-1.4c-0.3-0.5-0.9-0.6-1.4-0.2l0,0l-11.6,8.1l0,0"/>
		<path class="st10" d="M96,60.6c1.4-0.5,2.4-0.7,3.5-1l0.5-0.1c0.3-0.1,0.6-0.3,0.7-0.6c0.1-0.3,0.1-0.7-0.1-0.9l-2.9-4.1
			c-0.2-0.3-0.5-0.4-0.9-0.4c-0.3,0-0.7,0.2-0.8,0.5c-0.2,0.4-1.3,2.1-2.4,3.4c-1.1,1.3-2.1,2.6-2.9,3.3c-0.4,0.3-0.4,0.9-0.1,1.3
			c0.3,0.4,0.8,0.5,1.3,0.3C92.8,61.8,94.3,61.1,96,60.6z"/>
	</g>
	<g>
		<path class="st10" d="M45,95.1L45,95.1l10.8-7.6l0,0c0.5-0.3,0.6-0.9,0.2-1.4c-0.3-0.5-0.9-0.6-1.4-0.2l0,0l-10.8,7.6l0,0"/>
		<path class="st10" d="M43.4,97.4c1.4-0.5,2.4-0.7,3.5-1l0.5-0.1c0.3-0.1,0.6-0.3,0.7-0.6c0.1-0.3,0.1-0.7-0.1-0.9l-2.9-4.1
			c-0.2-0.3-0.5-0.4-0.9-0.4c-0.3,0-0.7,0.2-0.8,0.5c-0.2,0.4-1.3,2.1-2.4,3.4c-1.1,1.3-2.1,2.6-2.9,3.3c-0.4,0.3-0.4,0.9-0.1,1.3
			c0.3,0.4,0.8,0.5,1.3,0.3C40.2,98.6,41.7,98,43.4,97.4z"/>
	</g>
	<g>
		<path class="st11" d="M71.3,78.6h-2.5v-1.5c-0.4,0.6-0.9,1-1.5,1.3s-1.2,0.4-1.7,0.4c-1.2,0-2.2-0.5-3.1-1.4s-1.3-2.3-1.3-4
			c0-1.8,0.4-3.1,1.2-4s1.9-1.4,3.1-1.4c1.2,0,2.2,0.5,3,1.4v-5.2h2.7V78.6z M63.9,73.2c0,1.1,0.2,1.9,0.5,2.4
			c0.4,0.7,1.1,1.1,1.9,1.1c0.6,0,1.2-0.3,1.6-0.8s0.7-1.3,0.7-2.4c0-1.2-0.2-2-0.6-2.6s-1-0.8-1.7-0.8c-0.7,0-1.2,0.3-1.6,0.8
			S63.9,72.2,63.9,73.2z"/>
		<path class="st11" d="M80.7,82.5v-5.2c-0.4,0.5-0.8,0.8-1.3,1.1s-1.1,0.4-1.7,0.4c-1.2,0-2.1-0.4-2.9-1.3c-0.9-1-1.3-2.4-1.3-4.2
			c0-1.7,0.4-3,1.3-3.9s1.9-1.4,3.1-1.4c0.7,0,1.3,0.1,1.8,0.4s1,0.7,1.3,1.3v-1.5h2.5v14.3H80.7z M80.8,73.3c0-1.1-0.2-1.9-0.6-2.4
			s-1-0.8-1.6-0.8c-0.7,0-1.2,0.3-1.7,0.8s-0.7,1.4-0.7,2.5c0,1.1,0.2,2,0.6,2.5s1,0.8,1.6,0.8s1.2-0.3,1.7-0.8S80.8,74.4,80.8,73.3
			z"/>
	</g>
</g>
<g id="Statorw">
	<g>
		<path class="st12" d="M73.7,131.1c-3.5,0-6.4-2.9-6.4-6.4c0-3.5,2.9-6.4,6.4-6.4s6.4,2.9,6.4,6.4
			C80.1,128.3,77.2,131.1,73.7,131.1z"/>
		<line class="st13" x1="69.2" y1="120.2" x2="78.2" y2="129.2"/>
		<line class="st13" x1="78.2" y1="120.2" x2="69.2" y2="129.2"/>
	</g>
	<g>
		<g>
			<path class="st12" d="M73.7,29.1c-3.5,0-6.4-2.9-6.4-6.4c0-3.5,2.9-6.4,6.4-6.4c3.5,0,6.4,2.9,6.4,6.4
				C80.1,26.2,77.2,29.1,73.7,29.1z"/>
		</g>
		<path class="st14" d="M73.7,24.3c-0.9,0-1.6-0.7-1.6-1.6c0-0.9,0.7-1.6,1.6-1.6c0.9,0,1.6,0.7,1.6,1.6
			C75.3,23.6,74.6,24.3,73.7,24.3z"/>
	</g>
	<g>
		<path class="st15" d="M25.6,101.5c-1.3-2.2-0.5-4.9,1.7-6.2c2.2-1.3,4.9-0.5,6.2,1.7c1.3,2.2,0.5,4.9-1.7,6.2
			C29.6,104.4,26.8,103.7,25.6,101.5z"/>
		<line class="st16" x1="30.7" y1="94.8" x2="28.3" y2="103.6"/>
		<line class="st16" x1="33.9" y1="100.4" x2="25.1" y2="98"/>
	</g>
	<g>
		<g>
			<path class="st15" d="M114,50.5c-1.3-2.2-0.5-4.9,1.7-6.2c2.2-1.3,4.9-0.5,6.2,1.7c1.3,2.2,0.5,4.9-1.7,6.2
				C118,53.4,115.2,52.6,114,50.5z"/>
		</g>
		<path class="st17" d="M116.9,48.8c-0.3-0.5-0.1-1.2,0.4-1.5c0.5-0.3,1.2-0.1,1.5,0.4c0.3,0.5,0.1,1.2-0.4,1.5
			C117.9,49.5,117.2,49.3,116.9,48.8z"/>
	</g>
	<g>
		<path class="st15" d="M121.8,101.5c-1.3,2.2-4,2.9-6.2,1.7c-2.2-1.3-2.9-4-1.7-6.2c1.3-2.2,4-2.9,6.2-1.7
			C122.3,96.5,123.1,99.3,121.8,101.5z"/>
		<line class="st16" x1="113.5" y1="100.4" x2="122.3" y2="98"/>
		<line class="st16" x1="116.7" y1="94.8" x2="119.1" y2="103.6"/>
	</g>
	<g>
		<g>
			<path class="st15" d="M33.4,50.5c-1.3,2.2-4,2.9-6.2,1.7c-2.2-1.3-2.9-4-1.7-6.2c1.3-2.2,4-2.9,6.2-1.7
				C33.9,45.5,34.7,48.3,33.4,50.5z"/>
		</g>
		<path class="st17" d="M30.5,48.8c-0.3,0.5-1,0.7-1.5,0.4c-0.5-0.3-0.7-1-0.4-1.5c0.3-0.5,1-0.7,1.5-0.4
			C30.6,47.5,30.8,48.2,30.5,48.8z"/>
	</g>
	<g>
		<path class="st18" d="M21.6,72.7L21.6,72.7l-13.2,0l0,0c-0.6,0-1,0.4-1,1c0,0.6,0.4,1,1,1l0,0l13.2,0l0,0"/>
		<path class="st18" d="M24.2,71.7c-1.4-0.4-2.3-0.8-3.5-1.3l-0.5-0.2c-0.3-0.1-0.7-0.1-0.9,0.1c-0.3,0.2-0.4,0.5-0.4,0.8v5
			c0,0.3,0.2,0.7,0.5,0.8c0.3,0.2,0.7,0.2,1,0.1c0.4-0.2,2.3-1,3.9-1.4c1.6-0.5,3.2-0.9,4.2-1c0.5-0.1,0.9-0.5,0.9-1s-0.4-0.9-0.9-1
			C27.4,72.6,25.9,72.2,24.2,71.7z"/>
	</g>
	<g>
		<path class="st18" d="M132.2,72.7L132.2,72.7l-13.2,0l0,0c-0.6,0-1,0.4-1,1c0,0.6,0.4,1,1,1l0,0l13.2,0l0,0"/>
		<path class="st18" d="M134.9,71.7c-1.4-0.4-2.3-0.8-3.5-1.3l-0.5-0.2c-0.3-0.1-0.7-0.1-0.9,0.1c-0.3,0.2-0.4,0.5-0.4,0.8v5
			c0,0.3,0.2,0.7,0.5,0.8c0.3,0.2,0.7,0.2,1,0.1c0.4-0.2,2.3-1,3.9-1.4c1.6-0.5,3.2-0.9,4.2-1c0.5-0.1,0.9-0.5,0.9-1s-0.4-0.9-0.9-1
			C138.1,72.6,136.5,72.2,134.9,71.7z"/>
	</g>
</g>
</svg>
