<?xml version="1.0" encoding="utf-8"?>
<!-- Generator: Adobe Illustrator 26.3.1, SVG Export Plug-In . SVG Version: 6.00 Build 0)  -->
<svg version="1.1" id="Ebene_1" xmlns="http://www.w3.org/2000/svg" xmlns:xlink="http://www.w3.org/1999/xlink" x="0px" y="0px"
	 viewBox="0 0 36 36" style="enable-background:new 0 0 36 36;" xml:space="preserve">
<style type="text/css">
	.st0{opacity:0.5;}
	.st1{fill:#8ACBC1;stroke:#000000;stroke-width:6.340000e-02;}
	.st2{fill:#CCCCCC;stroke:#000000;stroke-width:4.530000e-02;}
	.st3{fill:none;}
	.st4{display:none;}
	.st5{display:inline;}
	.st6{fill:#00ABE7;stroke:#000000;stroke-width:0.25;}
	.st7{fill:none;stroke:#000000;stroke-width:0.25;}
	.st8{stroke:#000000;stroke-width:0.25;}
</style>
<g id="Statorronde" class="st0">
	<path class="st1" d="M18,0c9.9,0,18,8,18,18s-8,18-18,18c-9.9,0-18-8-18-18S8,0,18,0z M6.5,18c0,6.4,5.2,11.5,11.5,11.5
		S29.5,24.3,29.5,18S24.3,6.5,18,6.5C11.6,6.5,6.5,11.6,6.5,18z"/>
</g>
<g id="Rotor" class="st0">
	<path class="st1" d="M18,28.8c6,0,10.8-4.8,10.8-10.8S23.9,7.2,18,7.2C12,7.2,7.2,12.1,7.2,18S12,28.8,18,28.8z"/>
	<path class="st2" d="M19.3,14.7v-1h-2.9v1c-1.3,0.6-2.2,1.8-2.2,3.3c0,2,1.6,3.6,3.6,3.6s3.6-1.6,3.6-3.6
		C21.5,16.6,20.6,15.3,19.3,14.7z"/>
	<circle class="st3" cx="18" cy="18" r="10.8"/>
</g>
<g id="RotorWicklg" class="st4">
	<g class="st5">
		<g>
			<path class="st6" d="M44.2,36.4c0-3.1,2.5-5.7,5.7-5.7c3.1,0,5.7,2.5,5.7,5.7s-2.5,5.7-5.7,5.7C46.8,42.1,44.2,39.5,44.2,36.4z"
				/>
			<line class="st7" x1="53.9" y1="32.4" x2="45.9" y2="40.4"/>
			<line class="st7" x1="53.9" y1="40.4" x2="45.9" y2="32.4"/>
		</g>
		<g>
			<g>
				<path class="st6" d="M-18.9-3.3c1.6-2.7,5-3.6,7.7-2.1c2.7,1.6,3.6,5,2.1,7.8c-1.6,2.7-5,3.6-7.7,2.1
					C-19.5,2.9-20.4-0.6-18.9-3.3z"/>
			</g>
			<path class="st8" d="M-15.2-1.2c0.4-0.7,1.3-0.9,1.9-0.5s0.9,1.3,0.5,1.9c-0.4,0.7-1.3,0.9-1.9,0.5C-15.3,0.4-15.6-0.5-15.2-1.2z
				"/>
		</g>
	</g>
	<g class="st5">
		<g>
			<path class="st6" d="M44.2-0.5c0-3.1,2.5-5.7,5.7-5.7c3.1,0,5.7,2.5,5.7,5.7S53,5.2,49.9,5.2S44.2,2.7,44.2-0.5z"/>
			<line class="st7" x1="53.9" y1="-4.5" x2="45.9" y2="3.5"/>
			<line class="st7" x1="53.9" y1="3.5" x2="45.9" y2="-4.5"/>
		</g>
		<g>
			<g>
				<path class="st6" d="M-18.9,39.2c-1.6-2.7-0.6-6.2,2.1-7.8s6.2-0.6,7.8,2.1c1.6,2.7,0.6,6.2-2.1,7.8
					C-13.8,42.9-17.3,41.9-18.9,39.2z"/>
			</g>
			<path class="st8" d="M-15.2,37.1c-0.4-0.7-0.2-1.5,0.5-1.9c0.7-0.4,1.5-0.2,1.9,0.5c0.4,0.7,0.2,1.5-0.5,1.9
				C-13.9,38-14.8,37.8-15.2,37.1z"/>
		</g>
	</g>
</g>
</svg>
