<?xml version="1.0" encoding="utf-8"?>
<!-- Generator: Adobe Illustrator 27.4.1, SVG Export Plug-In . SVG Version: 6.00 Build 0)  -->
<svg version="1.1" id="Ebene_1" xmlns="http://www.w3.org/2000/svg" xmlns:xlink="http://www.w3.org/1999/xlink" x="0px" y="0px"
	 viewBox="0 0 179.2 72.2" style="enable-background:new 0 0 179.2 72.2;" xml:space="preserve">
<style type="text/css">
	.st0{fill:#FF6A00;}
</style>
<g id="type">
	<g>
		<path class="st0" d="M34.5,17.7v-6.4h-3.1V8.7h3.1V5.2h2.9v3.5h3.7v2.6h-3.7v5.7c0,0.8,0.3,1.2,1.1,1.2h2.5v2.6h-3.5
			C35.5,20.8,34.5,19.9,34.5,17.7z"/>
		<path class="st0" d="M45,17.7v-6.4h-3.1V8.7H45V5.2H48v3.5h3.7v2.6H48v5.7c0,0.8,0.3,1.2,1.1,1.2h2.5v2.6h-3.5
			C46,20.8,45,19.9,45,17.7z"/>
		<path class="st0" d="M52.9,18.2l6.5-6.9H53V8.7h10.2v2.6l-6.5,6.9h6.7v2.6H52.9L52.9,18.2L52.9,18.2z"/>
		<path class="st0" d="M72.2,14.6h-7.4V12h7.4V14.6z"/>
		<path class="st0" d="M73.7,14.7c0-3.9,2.4-6.3,6-6.3c3.6,0,5.9,2.3,5.9,6.1c0,0.4,0,0.8-0.1,1.3h-8.8c0.1,1.8,1.3,2.9,3.1,2.9
			c1.3,0,2.1-0.6,2.5-1.4h3c-0.7,2.4-2.6,3.9-5.5,3.9C76.2,21.2,73.7,18.6,73.7,14.7z M82.6,13.5L82.6,13.5c0-1.7-1.1-2.7-2.9-2.7
			c-1.8,0-2.9,1.1-3,2.7H82.6z"/>
		<path class="st0" d="M87.6,8.7h2.6V10c0.7-1.2,1.7-1.7,3.2-1.7c1.6,0,2.7,0.7,3.3,2c0.9-1.4,2-2,3.5-2c2.8,0,4.4,1.7,4.4,4.8v7.7
			h-3v-7.5c0-1.5-0.7-2.3-2-2.3c-1.3,0-2.1,1-2.1,2.4v7.4h-2.9v-7.5c0-1.5-0.7-2.3-2-2.3c-1.3,0-2.1,1-2.1,2.4v7.4h-2.9V8.7
			L87.6,8.7z"/>
		<path class="st0" d="M106.5,14.8c0-3.8,2.6-6.4,6.3-6.4c3.7,0,6.3,2.6,6.3,6.4s-2.6,6.4-6.3,6.4C109.1,21.2,106.5,18.6,106.5,14.8
			z M112.8,18.5c1.9,0,3.3-1.5,3.3-3.7s-1.3-3.7-3.3-3.7s-3.2,1.5-3.2,3.7S110.9,18.5,112.8,18.5z"/>
		<path class="st0" d="M121,17h3.5v3.8H121V17z"/>
		<path class="st0" d="M127.9,17.7v-6.4h-3.1V8.7h3.1V5.2h2.9v3.5h3.7v2.6h-3.7v5.7c0,0.8,0.3,1.2,1.2,1.2h2.5v2.6H131
			C128.8,20.8,127.9,19.9,127.9,17.7z"/>
		<path class="st0" d="M136.2,3.5h2.9v6.2c0.8-0.9,1.9-1.3,3.3-1.3c3,0,4.8,1.9,4.8,5.1v7.3h-2.9v-7c0-1.9-0.9-2.8-2.4-2.8
			c-1.6,0-2.7,1.2-2.7,2.9v6.9h-2.9V3.5z"/>
		<path class="st0" d="M148.2,8.7h3.1l2.3,8.8l2.3-8.8h3.4l2.3,8.8l2.3-8.8h3.1l-3.6,12.1H160l-2.3-8.7l-2.4,8.7h-3.5L148.2,8.7z"/>
		<path class="st0" d="M167.5,17.3h3c0.1,1,1,1.5,2.4,1.5c1.3,0,2.1-0.6,2.1-1.5c0-0.8-0.6-1.2-1.6-1.3l-1.9-0.2
			c-2.2-0.3-3.7-1.6-3.7-3.6c0-2.4,1.9-3.9,5-3.9c3,0,5,1.3,5.1,3.8h-2.9c-0.1-1-0.9-1.4-2.2-1.4c-1.3,0-2,0.5-2,1.3
			c0,0.7,0.6,1.1,1.8,1.3l1.9,0.2c2.3,0.3,3.6,1.6,3.6,3.6c0,2.4-2,4-5.2,4C169.6,21.2,167.6,19.8,167.5,17.3z"/>
	</g>
	<g>
		<g>
			<path class="st0" d="M34.2,30.4h-1.8v-1H37v1h-1.8v4.8h-1V30.4z"/>
			<path class="st0" d="M36.7,33.2c0-1.3,0.8-2.1,2-2.1s1.9,0.8,1.9,2c0,0.1,0,0.3,0,0.4h-2.9c0,0.6,0.4,1,1.1,1
				c0.4,0,0.7-0.2,0.8-0.5h1c-0.3,0.8-0.9,1.3-1.8,1.3C37.5,35.4,36.7,34.5,36.7,33.2z M39.7,32.8L39.7,32.8c0-0.6-0.4-0.9-1-0.9
				c-0.6,0-1,0.4-1,0.9H39.7z"/>
			<path class="st0" d="M41.2,33.2c0-1.3,0.8-2.1,2-2.1c1,0,1.7,0.6,1.8,1.5h-1C44,32.3,43.7,32,43.3,32c-0.6,0-1,0.5-1,1.3
				c0,0.8,0.4,1.3,1,1.3c0.5,0,0.8-0.3,0.9-0.7h1c-0.1,0.8-0.8,1.6-1.9,1.6C42,35.4,41.2,34.5,41.2,33.2z"/>
			<path class="st0" d="M45.8,29.5h1v2c0.3-0.3,0.6-0.4,1.1-0.4c1,0,1.6,0.6,1.6,1.7v2.4h-1v-2.3c0-0.6-0.3-0.9-0.8-0.9
				s-0.9,0.4-0.9,1v2.3h-1L45.8,29.5L45.8,29.5z"/>
			<path class="st0" d="M50.5,31.2h0.9v0.5c0.2-0.4,0.7-0.6,1.2-0.6c1,0,1.6,0.6,1.6,1.7v2.4h-1v-2.3c0-0.6-0.3-0.9-0.8-0.9
				s-0.9,0.4-0.9,1v2.3h-1L50.5,31.2L50.5,31.2z"/>
			<path class="st0" d="M54.9,33.2c0-1.3,0.9-2.1,2.1-2.1c1.3,0,2.1,0.9,2.1,2.1c0,1.3-0.9,2.1-2.1,2.1
				C55.8,35.4,54.9,34.5,54.9,33.2z M57,34.5c0.7,0,1.1-0.5,1.1-1.3S57.7,32,57,32s-1.1,0.5-1.1,1.3S56.4,34.5,57,34.5z"/>
			<path class="st0" d="M59.9,34.4v-5h1v4.6c0,0.2,0.1,0.3,0.3,0.3h0.5v0.9h-0.9C60.2,35.3,59.9,35,59.9,34.4z"/>
			<path class="st0" d="M62,33.2c0-1.3,0.9-2.1,2.1-2.1c1.3,0,2.1,0.9,2.1,2.1c0,1.3-0.9,2.1-2.1,2.1C62.9,35.4,62,34.5,62,33.2z
				 M64.1,34.5c0.7,0,1.1-0.5,1.1-1.3S64.8,32,64.1,32c-0.7,0-1.1,0.5-1.1,1.3S63.4,34.5,64.1,34.5z"/>
			<path class="st0" d="M66.6,35.7c0-0.3,0.2-0.6,0.5-0.8c-0.2-0.2-0.4-0.4-0.4-0.7c0-0.3,0.2-0.6,0.7-0.8c-0.3-0.3-0.5-0.6-0.5-1
				c0-0.8,0.6-1.4,1.6-1.4c0.6,0,1.2,0.3,1.4,0.7v-0.1c0-0.4,0.3-0.5,0.5-0.5h0.6v0.9h-0.7c-0.1,0-0.2,0-0.2,0.2v0.3
				c0,0.8-0.7,1.4-1.6,1.4h-0.7c-0.2,0-0.3,0.1-0.3,0.3c0,0.2,0.1,0.3,0.3,0.3h1.4c0.8,0,1.3,0.4,1.3,1.1c0,0.7-0.4,1.2-1.3,1.2
				h-1.4C67,36.7,66.6,36.3,66.6,35.7z M68,36h1.3c0.3,0,0.5-0.1,0.5-0.4c0-0.2-0.2-0.3-0.4-0.3H68c-0.3,0-0.5,0.2-0.5,0.4
				C67.5,35.8,67.7,36,68,36z M68.5,33.2c0.4,0,0.7-0.3,0.7-0.7s-0.3-0.7-0.7-0.7s-0.7,0.3-0.7,0.7S68.1,33.2,68.5,33.2z"/>
			<path class="st0" d="M71.6,29.5h1.1v1h-1.1V29.5z M71.6,31.2h1v4h-1V31.2z"/>
			<path class="st0" d="M73.3,33.2c0-1.3,0.8-2.1,2-2.1c1.2,0,1.9,0.8,1.9,2c0,0.1,0,0.3,0,0.4h-2.9c0.1,0.6,0.4,1,1.1,1
				c0.4,0,0.7-0.2,0.8-0.5h1c-0.3,0.8-0.9,1.3-1.8,1.3C74.2,35.4,73.3,34.5,73.3,33.2z M76.3,32.8L76.3,32.8c0-0.6-0.4-0.9-1-0.9
				s-1,0.4-1,0.9H76.3z"/>
			<path class="st0" d="M78.7,34.2v-2.1h-1v-0.9h1V30h1v1.2h1.2v0.9h-1.2V34c0,0.3,0.1,0.4,0.4,0.4h0.9v0.9h-1.2
				C79,35.3,78.7,35,78.7,34.2z"/>
			<path class="st0" d="M81.6,31.2h0.9v0.7c0.1-0.4,0.4-0.7,0.9-0.7h0.7v0.9h-0.9c-0.5,0-0.7,0.3-0.7,0.8v2.4h-1L81.6,31.2
				L81.6,31.2z"/>
			<path class="st0" d="M84.4,34.1c0-0.7,0.5-1.3,1.5-1.3l1.1-0.1v-0.2c0-0.4-0.2-0.6-0.7-0.6c-0.5,0-0.7,0.1-0.7,0.5h-1
				c0.1-0.8,0.7-1.3,1.8-1.3c1,0,1.6,0.5,1.6,1.4v1.9c0,0.1,0,0.1,0.1,0.1h0.4v0.8h-0.7c-0.3,0-0.5-0.2-0.5-0.4v0
				c-0.2,0.4-0.7,0.6-1.3,0.6C85,35.4,84.4,34.9,84.4,34.1z M86.1,34.6c0.5,0,0.9-0.3,0.9-0.9v-0.2l-1,0.1c-0.4,0-0.6,0.3-0.6,0.5
				C85.4,34.4,85.6,34.6,86.1,34.6z"/>
			<path class="st0" d="M89.1,31.2h0.9v0.5c0.2-0.4,0.7-0.6,1.2-0.6c1,0,1.6,0.6,1.6,1.7v2.4h-1v-2.3c0-0.6-0.3-0.9-0.8-0.9
				s-0.9,0.4-0.9,1v2.3h-1L89.1,31.2L89.1,31.2z"/>
			<path class="st0" d="M93.4,34.1h1c0,0.3,0.3,0.5,0.8,0.5c0.4,0,0.7-0.2,0.7-0.5c0-0.3-0.2-0.4-0.6-0.4l-0.6-0.1
				c-0.8-0.1-1.2-0.5-1.2-1.2c0-0.8,0.7-1.3,1.7-1.3c1,0,1.7,0.4,1.7,1.3h-1c0-0.3-0.3-0.5-0.7-0.5s-0.7,0.2-0.7,0.4
				c0,0.2,0.2,0.4,0.6,0.4l0.7,0.1c0.8,0.1,1.2,0.5,1.2,1.2c0,0.8-0.7,1.3-1.7,1.3C94.1,35.4,93.5,34.9,93.4,34.1z"/>
			<path class="st0" d="M99.6,29.5h1.4v0.9h-1.1c-0.3,0-0.4,0.1-0.4,0.4v0.5h1.3v0.9h-1.3v3.2h-1v-3.2h-1v-0.9h1v-0.6
				C98.4,29.9,98.8,29.5,99.6,29.5z"/>
			<path class="st0" d="M101.1,33.2c0-1.3,0.8-2.1,2-2.1c1.2,0,1.9,0.8,1.9,2c0,0.1,0,0.3,0,0.4H102c0.1,0.6,0.4,1,1.1,1
				c0.4,0,0.7-0.2,0.8-0.5h1c-0.3,0.8-0.9,1.3-1.8,1.3C101.9,35.4,101.1,34.5,101.1,33.2z M104,32.8L104,32.8c0-0.6-0.4-0.9-1-0.9
				s-1,0.4-1,0.9H104z"/>
			<path class="st0" d="M105.8,31.2h0.9v0.7c0.1-0.4,0.4-0.7,0.9-0.7h0.7v0.9h-0.9c-0.5,0-0.7,0.3-0.7,0.8v2.4h-1L105.8,31.2
				L105.8,31.2z"/>
			<path class="st0" d="M108.8,34.4l2.1-2.3h-2.1v-0.9h3.4v0.9l-2.1,2.3h2.2v0.9h-3.5V34.4L108.8,34.4z"/>
			<path class="st0" d="M112.8,33.2c0-1.3,0.8-2.1,2-2.1c1.2,0,1.9,0.8,1.9,2c0,0.1,0,0.3,0,0.4h-2.9c0.1,0.6,0.4,1,1.1,1
				c0.4,0,0.7-0.2,0.8-0.5h1c-0.3,0.8-0.9,1.3-1.8,1.3C113.6,35.4,112.8,34.5,112.8,33.2z M115.7,32.8L115.7,32.8
				c0-0.6-0.4-0.9-1-0.9c-0.6,0-1,0.4-1,0.9H115.7z"/>
			<path class="st0" d="M117.5,31.2h0.9v0.5c0.2-0.4,0.7-0.6,1.2-0.6c1,0,1.6,0.6,1.6,1.7v2.4h-1v-2.3c0-0.6-0.3-0.9-0.8-0.9
				s-0.9,0.4-0.9,1v2.3h-1L117.5,31.2L117.5,31.2z"/>
			<path class="st0" d="M122.7,34.2v-2.1h-1v-0.9h1V30h1v1.2h1.2v0.9h-1.2V34c0,0.3,0.1,0.4,0.4,0.4h0.9v0.9h-1.2
				C123,35.3,122.7,35,122.7,34.2z"/>
			<path class="st0" d="M125.6,31.2h0.9v0.7c0.1-0.4,0.4-0.7,0.9-0.7h0.7v0.9h-0.9c-0.5,0-0.7,0.3-0.7,0.8v2.4h-1L125.6,31.2
				L125.6,31.2z"/>
			<path class="st0" d="M128.7,33.6v-2.4h1v2.3c0,0.6,0.3,0.9,0.8,0.9s0.9-0.4,0.9-1v-2.3h1v4h-0.9v-0.4c-0.3,0.3-0.7,0.5-1.2,0.5
				C129.3,35.4,128.7,34.7,128.7,33.6z"/>
			<path class="st0" d="M133.3,31.2h0.9v0.4c0.2-0.4,0.6-0.6,1.1-0.6c0.5,0,0.9,0.2,1.1,0.7c0.3-0.5,0.7-0.7,1.2-0.7
				c0.9,0,1.5,0.6,1.5,1.6v2.5h-1v-2.5c0-0.5-0.2-0.8-0.7-0.8s-0.7,0.3-0.7,0.8v2.4h-1v-2.5c0-0.5-0.2-0.8-0.7-0.8
				c-0.4,0-0.7,0.3-0.7,0.8v2.4h-1L133.3,31.2L133.3,31.2z"/>
			<path class="st0" d="M33,39.8h3.7v1H34v1.3h2.6v1H34v1.6h2.6v1H33V39.8z"/>
			<path class="st0" d="M37.7,44.8v-5h1v4.6c0,0.2,0.1,0.3,0.3,0.3h0.5v0.9h-0.9C37.9,45.6,37.7,45.3,37.7,44.8z"/>
			<path class="st0" d="M39.8,43.5c0-1.3,0.8-2.1,2-2.1s1.9,0.8,1.9,2c0,0.1,0,0.3,0,0.4h-2.9c0,0.6,0.4,1,1.1,1
				c0.4,0,0.7-0.2,0.8-0.5h1c-0.3,0.8-0.9,1.3-1.8,1.3C40.6,45.7,39.8,44.8,39.8,43.5z M42.7,43.1L42.7,43.1c0-0.6-0.4-0.9-1-0.9
				c-0.6,0-1,0.4-1,0.9H42.7z"/>
			<path class="st0" d="M45.9,43.8h-0.4v1.7h-1v-5.8h1v3.1h0.4l1.2-1.4h1.2l-1.6,1.8l1.6,2.2h-1.2L45.9,43.8z"/>
			<path class="st0" d="M49.7,44.5v-2.1h-1v-0.9h1v-1.2h1v1.2h1.2v0.9h-1.2v1.9c0,0.3,0.1,0.4,0.4,0.4h0.9v0.9h-1.2
				C50,45.6,49.7,45.3,49.7,44.5z"/>
			<path class="st0" d="M52.6,41.5h0.9v0.7c0.1-0.4,0.4-0.7,0.9-0.7h0.7v0.9h-0.9c-0.5,0-0.7,0.3-0.7,0.8v2.4h-1L52.6,41.5
				L52.6,41.5z"/>
			<path class="st0" d="M55.4,43.5c0-1.3,0.9-2.1,2.1-2.1c1.3,0,2.1,0.9,2.1,2.1c0,1.3-0.9,2.1-2.1,2.1
				C56.3,45.7,55.4,44.8,55.4,43.5z M57.5,44.8c0.7,0,1.1-0.5,1.1-1.3c0-0.8-0.4-1.3-1.1-1.3s-1.1,0.5-1.1,1.3
				C56.4,44.3,56.9,44.8,57.5,44.8z"/>
			<path class="st0" d="M60.4,41.5h0.9V42c0.2-0.4,0.6-0.6,1.1-0.6c0.5,0,0.9,0.2,1.1,0.7c0.3-0.5,0.7-0.7,1.2-0.7
				c0.9,0,1.5,0.6,1.5,1.6v2.5h-1V43c0-0.5-0.2-0.8-0.7-0.8c-0.4,0-0.7,0.3-0.7,0.8v2.4h-1V43c0-0.5-0.2-0.8-0.7-0.8
				c-0.4,0-0.7,0.3-0.7,0.8v2.4h-1L60.4,41.5L60.4,41.5L60.4,41.5z"/>
			<path class="st0" d="M66.8,43.5c0-1.3,0.9-2.1,2.1-2.1c1.3,0,2.1,0.9,2.1,2.1c0,1.3-0.9,2.1-2.1,2.1
				C67.7,45.7,66.8,44.8,66.8,43.5z M69,44.8c0.7,0,1.1-0.5,1.1-1.3c0-0.8-0.4-1.3-1.1-1.3c-0.7,0-1.1,0.5-1.1,1.3
				C67.9,44.3,68.3,44.8,69,44.8z"/>
			<path class="st0" d="M72.7,45.1v0.5h-0.9v-5.8h1v2.1c0.3-0.3,0.7-0.5,1.2-0.5c1.2,0,1.9,0.9,1.9,2.1c0,1.3-0.8,2.1-1.9,2.1
				C73.5,45.7,73,45.5,72.7,45.1z M73.9,44.8c0.6,0,1.1-0.5,1.1-1.3c0-0.8-0.4-1.3-1.1-1.3c-0.6,0-1.1,0.5-1.1,1.3
				C72.8,44.3,73.3,44.8,73.9,44.8z"/>
			<path class="st0" d="M76.7,39.8h1.1v1h-1.1V39.8z M76.8,41.5h1v4h-1V41.5z"/>
			<path class="st0" d="M78.8,44.8v-5h1v4.6c0,0.2,0.1,0.3,0.3,0.3h0.5v0.9h-0.9C79.1,45.6,78.8,45.3,78.8,44.8z"/>
			<path class="st0" d="M81.1,39.8h1.1v1h-1.1V39.8z M81.1,41.5h1v4h-1V41.5z"/>
			<path class="st0" d="M83.7,44.5v-2.1h-1v-0.9h1v-1.2h1v1.2h1.2v0.9h-1.2v1.9c0,0.3,0.1,0.4,0.4,0.4h0.9v0.9h-1.2
				C84,45.6,83.7,45.3,83.7,44.5z"/>
			<path class="st0" d="M86.4,44.4c0-0.7,0.5-1.3,1.5-1.3l1.1-0.1v-0.2c0-0.4-0.2-0.6-0.7-0.6c-0.5,0-0.7,0.1-0.7,0.5h-1
				c0.1-0.8,0.7-1.3,1.8-1.3c1,0,1.6,0.5,1.6,1.4v1.9c0,0.1,0,0.1,0.1,0.1h0.4v0.8h-0.7c-0.3,0-0.5-0.2-0.5-0.4v0
				c-0.2,0.4-0.7,0.6-1.3,0.6C86.9,45.7,86.4,45.2,86.4,44.4z M87.1,39.8H88v1h-0.9V39.8z M88,44.9c0.5,0,0.9-0.3,0.9-0.9v-0.2
				l-1,0.1c-0.4,0-0.6,0.3-0.6,0.5C87.3,44.7,87.6,44.9,88,44.9z M88.6,39.8h0.9v1h-0.9V39.8z"/>
			<path class="st0" d="M91.5,44.5v-2.1h-1v-0.9h1v-1.2h1v1.2h1.2v0.9h-1.2v1.9c0,0.3,0.1,0.4,0.4,0.4h0.9v0.9h-1.2
				C91.8,45.6,91.5,45.3,91.5,44.5z"/>
		</g>
	</g>
	<g>
		<path class="st0" d="M34.3,54.8h-1.8v-0.6h4.3v0.6h-1.8V60h-0.6V54.8z"/>
		<path class="st0" d="M36.6,58c0-1.3,0.8-2,1.9-2c1.1,0,1.8,0.7,1.8,1.9c0,0.1,0,0.2,0,0.3h-3.1c0,0.8,0.5,1.4,1.3,1.4
			c0.5,0,0.9-0.3,1.1-0.7h0.6c-0.3,0.7-0.9,1.2-1.7,1.2C37.3,60.1,36.6,59.3,36.6,58z M39.7,57.7L39.7,57.7c0-0.8-0.5-1.3-1.2-1.3
			c-0.7,0-1.2,0.5-1.3,1.2L39.7,57.7L39.7,57.7z"/>
		<path class="st0" d="M40.9,58.1c0-1.2,0.8-2.1,1.9-2.1c1,0,1.6,0.6,1.7,1.4H44c-0.1-0.4-0.5-0.8-1.1-0.8c-0.8,0-1.3,0.6-1.3,1.5
			s0.5,1.5,1.3,1.5c0.6,0,1.1-0.4,1.2-0.9h0.6c-0.1,0.8-0.8,1.4-1.8,1.4C41.7,60.1,40.9,59.2,40.9,58.1z"/>
		<path class="st0" d="M45.5,54.2h0.6v2.3c0.3-0.4,0.7-0.6,1.3-0.6c1,0,1.6,0.6,1.6,1.7V60h-0.6v-2.3c0-0.8-0.4-1.2-1.1-1.2
			c-0.7,0-1.2,0.5-1.2,1.2V60h-0.6V54.2z"/>
		<path class="st0" d="M50,56.1h0.5v0.6c0.2-0.5,0.7-0.7,1.3-0.7c1,0,1.6,0.6,1.6,1.7V60h-0.6v-2.3c0-0.8-0.4-1.2-1.1-1.2
			c-0.7,0-1.2,0.5-1.2,1.2V60H50V56.1z"/>
		<path class="st0" d="M54.5,54.3h0.7v0.8h-0.7V54.3z M54.5,56.1h0.6V60h-0.6V56.1z"/>
		<path class="st0" d="M56,58.9h0.6c0,0.5,0.4,0.7,1.1,0.7c0.6,0,1-0.3,1-0.7c0-0.4-0.3-0.6-0.7-0.6l-0.6-0.1
			c-0.7-0.1-1.2-0.5-1.2-1.1c0-0.7,0.6-1.2,1.6-1.2s1.6,0.4,1.6,1.2h-0.6c0-0.4-0.4-0.7-1-0.7c-0.6,0-0.9,0.3-0.9,0.6
			c0,0.3,0.2,0.5,0.8,0.6l0.6,0.1c0.8,0.1,1.2,0.5,1.2,1.1c0,0.7-0.6,1.2-1.6,1.2C56.6,60.1,56,59.7,56,58.9z"/>
		<path class="st0" d="M59.9,58.1c0-1.2,0.8-2.1,1.9-2.1c1,0,1.6,0.6,1.7,1.4h-0.6c-0.1-0.4-0.5-0.8-1.1-0.8c-0.8,0-1.3,0.6-1.3,1.5
			s0.5,1.5,1.3,1.5c0.6,0,1.1-0.4,1.2-0.9h0.6c-0.1,0.8-0.8,1.4-1.8,1.4C60.6,60.1,59.9,59.2,59.9,58.1z"/>
		<path class="st0" d="M64.4,54.2H65v2.3c0.3-0.4,0.7-0.6,1.3-0.6c1,0,1.6,0.6,1.6,1.7V60h-0.6v-2.3c0-0.8-0.4-1.2-1.1-1.2
			c-0.7,0-1.2,0.5-1.2,1.2V60h-0.6V54.2z"/>
		<path class="st0" d="M68.7,58c0-1.3,0.8-2,1.9-2s1.8,0.7,1.8,1.9c0,0.1,0,0.2,0,0.3h-3.1c0,0.8,0.6,1.4,1.3,1.4
			c0.5,0,0.9-0.3,1.1-0.7h0.6c-0.3,0.7-0.9,1.2-1.7,1.2C69.5,60.1,68.7,59.3,68.7,58z M71.8,57.7L71.8,57.7c0-0.8-0.5-1.3-1.2-1.3
			c-0.7,0-1.2,0.5-1.3,1.2L71.8,57.7L71.8,57.7z"/>
		<path class="st0" d="M79.3,57.2h-3.2V60h-0.6v-5.8h0.6v2.4h3.2v-2.4h0.6V60h-0.6V57.2z"/>
		<path class="st0" d="M81,58c0-1.2,0.8-2,2-2c1.2,0,2,0.8,2,2c0,1.2-0.8,2-2,2C81.8,60.1,81,59.2,81,58z M83,59.5
			c0.8,0,1.4-0.6,1.4-1.5c0-0.9-0.5-1.5-1.4-1.5s-1.4,0.6-1.4,1.5S82.2,59.5,83,59.5z"/>
		<path class="st0" d="M85.7,58.1c0-1.2,0.8-2.1,1.9-2.1c1,0,1.6,0.6,1.7,1.4h-0.6c-0.1-0.4-0.5-0.8-1.1-0.8c-0.8,0-1.3,0.6-1.3,1.5
			s0.5,1.5,1.3,1.5c0.6,0,1.1-0.4,1.2-0.9h0.6c-0.1,0.8-0.8,1.4-1.8,1.4C86.4,60.1,85.7,59.2,85.7,58.1z"/>
		<path class="st0" d="M90.1,54.2h0.6v2.3C91,56.2,91.5,56,92,56c1,0,1.6,0.6,1.6,1.7V60H93v-2.3c0-0.8-0.4-1.2-1.1-1.2
			c-0.7,0-1.2,0.5-1.2,1.2V60h-0.6V54.2z"/>
		<path class="st0" d="M94.4,58.9H95c0,0.5,0.4,0.7,1.1,0.7c0.6,0,1-0.3,1-0.7c0-0.4-0.3-0.6-0.7-0.6l-0.6-0.1
			c-0.7-0.1-1.2-0.5-1.2-1.1c0-0.7,0.6-1.2,1.6-1.2c1,0,1.6,0.4,1.6,1.2h-0.6c0-0.4-0.4-0.7-1-0.7c-0.6,0-0.9,0.3-0.9,0.6
			c0,0.3,0.2,0.5,0.8,0.6l0.6,0.1c0.8,0.1,1.2,0.5,1.2,1.1c0,0.7-0.6,1.2-1.6,1.2C95,60.1,94.4,59.7,94.4,58.9z"/>
		<path class="st0" d="M98.3,58.1c0-1.2,0.8-2.1,1.9-2.1c1,0,1.6,0.6,1.7,1.4h-0.6c-0.1-0.4-0.5-0.8-1.1-0.8c-0.8,0-1.3,0.6-1.3,1.5
			s0.5,1.5,1.3,1.5c0.6,0,1.1-0.4,1.2-0.9h0.6c-0.1,0.8-0.8,1.4-1.8,1.4C99.1,60.1,98.3,59.2,98.3,58.1z"/>
		<path class="st0" d="M102.8,54.2h0.6v2.3c0.3-0.4,0.7-0.6,1.3-0.6c1,0,1.6,0.6,1.6,1.7V60h-0.6v-2.3c0-0.8-0.4-1.2-1.1-1.2
			c-0.7,0-1.2,0.5-1.2,1.2V60h-0.6L102.8,54.2L102.8,54.2L102.8,54.2z"/>
		<path class="st0" d="M107.3,58.4v-2.3h0.6v2.3c0,0.8,0.4,1.2,1,1.2c0.7,0,1.1-0.5,1.1-1.2v-2.3h0.6V60h-0.5v-0.5
			c-0.3,0.4-0.7,0.7-1.3,0.7C107.9,60.1,107.3,59.5,107.3,58.4z"/>
		<path class="st0" d="M111.8,59.3v-5.1h0.6v4.9c0,0.2,0.1,0.3,0.3,0.3h0.5v0.5h-0.7C112,60,111.8,59.8,111.8,59.3z"/>
		<path class="st0" d="M113.6,58c0-1.3,0.8-2,1.9-2s1.8,0.7,1.8,1.9c0,0.1,0,0.2,0,0.3h-3.1c0,0.8,0.6,1.4,1.3,1.4
			c0.5,0,0.9-0.3,1.1-0.7h0.6c-0.3,0.7-0.9,1.2-1.7,1.2C114.4,60.1,113.6,59.3,113.6,58z M116.7,57.7L116.7,57.7
			c0-0.8-0.5-1.3-1.2-1.3c-0.7,0-1.2,0.5-1.3,1.2L116.7,57.7L116.7,57.7z"/>
		<path class="st0" d="M32.6,64.5h0.7l1.3,5l1.3-5h0.7l1.3,5l1.3-5h0.7l-1.5,5.8h-0.8l-1.3-4.9l-1.3,4.9h-0.8L32.6,64.5z"/>
		<path class="st0" d="M40.4,68.7v-2.3H41v2.3c0,0.8,0.4,1.2,1,1.2c0.7,0,1.1-0.5,1.1-1.2v-2.3h0.6v3.9h-0.5v-0.5
			c-0.3,0.4-0.7,0.7-1.3,0.7C41,70.4,40.4,69.8,40.4,68.7z M41.2,64.7h0.6v0.8h-0.6V64.7z M42.4,64.7H43v0.8h-0.6V64.7z"/>
		<path class="st0" d="M45,66.4h0.5V67c0.1-0.4,0.4-0.6,0.8-0.6h0.8v0.5h-0.8c-0.5,0-0.7,0.3-0.7,0.9v2.5h-0.6L45,66.4L45,66.4z"/>
		<path class="st0" d="M47.6,69.8l2.4-2.8h-2.4v-0.5h3.1v0.5l-2.4,2.8h2.5v0.5h-3.3V69.8L47.6,69.8z"/>
		<path class="st0" d="M52.2,69.6v0.7h-0.5v-5.8h0.6V67c0.3-0.5,0.7-0.7,1.4-0.7c1.1,0,1.9,0.8,1.9,2s-0.8,2-1.9,2
			C53,70.4,52.5,70.1,52.2,69.6z M53.6,69.9c0.8,0,1.3-0.6,1.3-1.5c0-0.9-0.5-1.5-1.3-1.5s-1.3,0.6-1.3,1.5
			C52.3,69.2,52.8,69.9,53.6,69.9z"/>
		<path class="st0" d="M56.4,68.7v-2.3H57v2.3c0,0.8,0.4,1.2,1,1.2c0.7,0,1.1-0.5,1.1-1.2v-2.3h0.6v3.9h-0.5v-0.5
			c-0.3,0.4-0.7,0.7-1.3,0.7C57,70.4,56.4,69.8,56.4,68.7z"/>
		<path class="st0" d="M60.9,66.4h0.5V67c0.1-0.4,0.4-0.6,0.8-0.6h0.8v0.5h-0.8c-0.5,0-0.7,0.3-0.7,0.9v2.5h-0.6L60.9,66.4
			L60.9,66.4z"/>
		<path class="st0" d="M63.3,70.8c0-0.3,0.2-0.6,0.5-0.8c-0.2-0.1-0.4-0.4-0.4-0.6c0-0.4,0.3-0.7,0.7-0.7c-0.4-0.3-0.6-0.7-0.6-1
			c0-0.8,0.6-1.3,1.5-1.3c0.6,0,1.1,0.3,1.3,0.7v-0.1c0-0.4,0.2-0.5,0.5-0.5h0.6v0.5h-0.6c-0.1,0-0.2,0.1-0.2,0.2v0.6
			c0,0.8-0.6,1.3-1.5,1.3h-0.7c-0.3,0-0.4,0.1-0.4,0.4c0,0.2,0.2,0.4,0.4,0.4H66c0.7,0,1.2,0.4,1.2,1c0,0.6-0.4,1.1-1.3,1.1h-1.3
			C63.7,71.8,63.3,71.4,63.3,70.8z M64.6,71.3h1.3c0.4,0,0.7-0.2,0.7-0.6c0-0.3-0.3-0.5-0.6-0.5h-1.3c-0.5,0-0.7,0.3-0.7,0.6
			C63.9,71.1,64.1,71.3,64.6,71.3z M65.2,68.5c0.6,0,0.9-0.3,0.9-0.9s-0.3-0.9-0.9-0.9c-0.6,0-0.9,0.3-0.9,0.9S64.6,68.5,65.2,68.5z
			"/>
		<path class="st0" d="M67.7,67.6h2.4v0.6h-2.4V67.6z"/>
		<path class="st0" d="M70.8,68.6h0.7c0,0.8,0.6,1.3,1.6,1.3c0.9,0,1.5-0.5,1.5-1.2c0-0.6-0.4-0.9-1.1-1l-0.8-0.1
			c-1.1-0.1-1.6-0.7-1.6-1.5c0-1,0.8-1.6,2-1.6c1.3,0,2,0.6,2,1.6h-0.6c0-0.6-0.6-1-1.4-1c-0.8,0-1.4,0.4-1.4,1
			c0,0.5,0.4,0.8,1.1,0.9l0.8,0.1c1,0.1,1.6,0.7,1.6,1.6c0,1.1-0.8,1.8-2.1,1.8C71.7,70.4,70.8,69.7,70.8,68.6z"/>
		<path class="st0" d="M76,68.4c0-1.2,0.8-2.1,1.9-2.1c1,0,1.6,0.6,1.7,1.4H79c-0.1-0.4-0.5-0.8-1.1-0.8c-0.8,0-1.3,0.6-1.3,1.5
			s0.5,1.5,1.3,1.5c0.6,0,1.1-0.4,1.2-0.9h0.6c-0.1,0.8-0.8,1.4-1.8,1.4C76.7,70.4,76,69.5,76,68.4z"/>
		<path class="st0" d="M80.5,64.5h0.6v2.3c0.3-0.4,0.7-0.6,1.3-0.6c1,0,1.6,0.6,1.6,1.7v2.3h-0.6V68c0-0.8-0.4-1.2-1.1-1.2
			c-0.7,0-1.2,0.5-1.2,1.2v2.3h-0.6V64.5z"/>
		<path class="st0" d="M84.4,66.4h0.6l1,3.2l1-3.2h0.7l1,3.2l1-3.2h0.6l-1.3,3.9h-0.7l-1-3.2l-1,3.2h-0.7L84.4,66.4z"/>
		<path class="st0" d="M90.7,68.3c0-1.3,0.8-2,1.9-2s1.8,0.7,1.8,1.9c0,0.1,0,0.2,0,0.3h-3.1c0,0.8,0.6,1.4,1.3,1.4
			c0.5,0,0.9-0.3,1.1-0.7h0.6c-0.3,0.7-0.9,1.2-1.7,1.2C91.5,70.4,90.7,69.6,90.7,68.3z M93.8,68L93.8,68c0-0.7-0.5-1.2-1.2-1.2
			c-0.7,0-1.2,0.5-1.3,1.2H93.8L93.8,68z"/>
		<path class="st0" d="M95.3,64.6H96v0.8h-0.7V64.6z M95.3,66.4h0.6v3.9h-0.6V66.4z"/>
		<path class="st0" d="M97.1,66.4h0.5V67c0.2-0.5,0.7-0.7,1.3-0.7c1,0,1.6,0.6,1.6,1.7v2.3h-0.6V68c0-0.8-0.4-1.2-1.1-1.2
			c-0.7,0-1.2,0.5-1.2,1.2v2.3h-0.6V66.4z"/>
		<path class="st0" d="M103.1,64.5h1.2v0.5h-1.1c-0.3,0-0.5,0.2-0.5,0.5v0.8h1.4v0.5h-1.4v3.4h-0.6v-3.4H101v-0.5h1.1v-0.9
			C102.1,64.9,102.5,64.5,103.1,64.5z"/>
		<path class="st0" d="M104.7,68.7v-2.3h0.6v2.3c0,0.8,0.4,1.2,1,1.2c0.7,0,1.1-0.5,1.1-1.2v-2.3h0.6v3.9h-0.5v-0.5
			c-0.3,0.4-0.7,0.7-1.3,0.7C105.3,70.4,104.7,69.8,104.7,68.7z"/>
		<path class="st0" d="M109.3,66.4h0.5V67c0.1-0.4,0.4-0.6,0.8-0.6h0.8v0.5h-0.8c-0.5,0-0.7,0.3-0.7,0.9v2.5h-0.6L109.3,66.4
			L109.3,66.4z"/>
		<path class="st0" d="M112.9,69.4v-2.5h-1.1v-0.5h1.1v-1.2h0.6v1.2h1.3v0.5h-1.3v2.4c0,0.3,0.1,0.5,0.5,0.5h0.8v0.5h-0.9
			C113.1,70.3,112.9,70,112.9,69.4z"/>
	</g>
</g>
<g id="image">
	<g id="XMLID_00000118366185557361409230000013236272427842013372_">
		<g>
			<g>
				<path class="st0" d="M20.1,0.7h-2.8c-0.3,0-0.6,0.3-0.6,0.6v0.8c0,0.3,0.3,0.6,0.6,0.6h2.8c0.3,0,0.6-0.3,0.6-0.6V1.3
					C20.7,1,20.4,0.7,20.1,0.7"/>
				<path class="st0" d="M24.1,4.7h-0.8c-0.3,0-0.6,0.3-0.6,0.6v4.8c0,0.3,0.3,0.6,0.6,0.6h0.8c0.3,0,0.6-0.3,0.6-0.6V5.3
					C24.7,5,24.4,4.7,24.1,4.7"/>
				<path class="st0" d="M20.1,4.7h-2.8c-0.3,0-0.6,0.3-0.6,0.6v0.8c0,0.3,0.3,0.6,0.6,0.6h0.8c0.3,0,0.6,0.3,0.6,0.6v2.8
					c0,0.3,0.3,0.6,0.6,0.6h0.8c0.3,0,0.6-0.3,0.6-0.6V5.3C20.7,5,20.4,4.7,20.1,4.7"/>
				<path class="st0" d="M20.1,18.8h-0.8c-0.3,0-0.6,0.3-0.6,0.6v2.8c0,0.3-0.3,0.6-0.6,0.6h-6.9c-0.3,0-0.6,0.3-0.6,0.6v0.8
					c0,0.3,0.3,0.6,0.6,0.6h6.9c0.3,0,0.6-0.3,0.6-0.6v-0.8c0-0.3,0.3-0.6,0.6-0.6h0.8c0.3,0,0.6-0.3,0.6-0.6v-2.8
					C20.7,19.1,20.4,18.8,20.1,18.8"/>
				<path class="st0" d="M8.6,23.4c0-0.3-0.3-0.6-0.6-0.6H7.2c-0.3,0-0.6-0.3-0.6-0.6v-2.8c0-0.3-0.3-0.6-0.6-0.6H5.2
					c-0.3,0-0.6,0.3-0.6,0.6v4.8c0,0.3,0.3,0.6,0.6,0.6H8c0.3,0,0.6-0.3,0.6-0.6V23.4"/>
				<path class="st0" d="M5.2,10.7H6c0.3,0,0.6-0.3,0.6-0.6V7.3c0-0.3,0.3-0.6,0.6-0.6H10c0.3,0,0.6-0.3,0.6-0.6V5.3
					c0-0.3-0.3-0.6-0.6-0.6H7.2C6.9,4.7,6.6,5,6.6,5.3v0.8c0,0.3-0.3,0.6-0.6,0.6H5.2c-0.3,0-0.6,0.3-0.6,0.6v2.8
					C4.6,10.5,4.8,10.7,5.2,10.7"/>
				<path class="st0" d="M2,18.8H1.1c-0.3,0-0.6,0.3-0.6,0.6v4.8c0,0.3,0.3,0.6,0.6,0.6H2c0.3,0,0.6-0.3,0.6-0.6v-4.8
					C2.6,19.1,2.3,18.8,2,18.8"/>
				<path class="st0" d="M10,26.8H9.2c-0.3,0-0.6,0.3-0.6,0.6v0.8c0,0.3,0.3,0.6,0.6,0.6H10c0.3,0,0.6-0.3,0.6-0.6v-0.8
					C10.6,27.1,10.4,26.8,10,26.8"/>
				<path class="st0" d="M10.6,10.1c0,0.3-0.3,0.6-0.6,0.6H9.2c-0.3,0-0.6,0.3-0.6,0.6v6.9c0,0.3,0.3,0.6,0.6,0.6H10
					c0.3,0,0.6-0.3,0.6-0.6v-6.8c0-0.3,0.3-0.6,0.6-0.6H12c0.3,0,0.6-0.3,0.6-0.6V9.3c0-0.3-0.3-0.6-0.6-0.6h-0.8
					c-0.3,0-0.6,0.3-0.6,0.6V10.1z"/>
				<path class="st0" d="M13.2,2.7H14c0.3,0,0.6-0.3,0.6-0.6V1.3c0-0.3-0.3-0.6-0.6-0.6h-0.8c-0.3,0-0.6,0.3-0.6,0.6v0.8
					C12.6,2.4,12.9,2.7,13.2,2.7"/>
				<path class="st0" d="M14.6,18.2c0,0.3-0.3,0.6-0.6,0.6h-0.8c-0.3,0-0.6,0.3-0.6,0.6v0.8c0,0.3,0.3,0.6,0.6,0.6H14
					c0.3,0,0.6-0.3,0.6-0.6v-0.8c0-0.3,0.3-0.6,0.6-0.6h0.8c0.3,0,0.6-0.3,0.6-0.6V9.3c0-0.3-0.3-0.6-0.6-0.6h-0.8
					c-0.3,0-0.6,0.3-0.6,0.6V18.2z"/>
				<path class="st0" d="M20.1,12.8h-0.8c-0.3,0-0.6,0.3-0.6,0.6v2.8c0,0.3,0.3,0.6,0.6,0.6h0.8c0.3,0,0.6-0.3,0.6-0.6v-2.8
					C20.7,13,20.4,12.8,20.1,12.8"/>
			</g>
		</g>
	</g>
</g>
</svg>
