<?xml version="1.0" encoding="utf-8"?>
<!-- Generator: Adobe Illustrator 26.3.1, SVG Export Plug-In . SVG Version: 6.00 Build 0)  -->
<svg version="1.1" id="Ebene_1" xmlns="http://www.w3.org/2000/svg" xmlns:xlink="http://www.w3.org/1999/xlink" x="0px" y="0px"
	 viewBox="0 0 179.2 69" style="enable-background:new 0 0 179.2 69;" xml:space="preserve">
<style type="text/css">
	.st0{fill:#F1851A;}
</style>
<polygon points="14.6,31.6 14.6,5.9 22.9,5.9 22.9,0.6 0.6,0.6 0.6,6 8.5,6 8.6,31.6 "/>
<polygon points="39.5,31.6 39.5,5.9 47.8,5.9 47.8,0.6 25.5,0.6 25.5,6 33.4,6 33.6,31.6 "/>
<polygon points="51.4,0.6 51.4,5.9 64.1,5.9 50.8,26.7 50.8,31.6 71.2,31.6 71.2,26.3 57.9,26.2 71.2,5.3 71.2,0.6 "/>
<rect x="75.4" y="16.5" width="13.5" height="5.4"/>
<polygon points="95.1,0.6 115.5,0.6 115.5,5.9 101.2,5.9 101.2,13.3 113.4,13.3 113.4,18.7 101.2,18.7 101.2,26.2 115.5,26.2 
	115.5,31.6 95.1,31.6 "/>
<polygon points="121.5,0.6 127.5,0.6 135.6,17.4 143.7,0.6 149.7,0.6 149.7,31.7 143.5,31.7 143.5,13.7 137.7,25.3 133.5,25.3 
	127.6,13.6 127.6,31.7 121.5,31.7 "/>
<line x1="178.8" y1="12.9" x2="178.8" y2="17.2"/>
<line x1="161.9" y1="16.9" x2="161.9" y2="14.1"/>
<path d="M163.5,25c-1.1-1.2-1.6-3.2-1.6-5.4c0-3.1,0-6.9,0-6.9c0.1-3.7,1.1-6.8,5.4-7l0,0l0,0c4.4,0.1,5.3,3.3,5.4,7
	c0,0,0,3.8,0,6.9c0,2.3-0.4,4.3-1.6,5.4c-1.1,1.1-2.3,1.5-3.9,1.5C165.8,26.5,164.6,26.1,163.5,25z M167.3,31.9
	c3.9,0,6.8-1.5,8.5-3.4c1.7-1.8,2.9-4.2,2.9-8.2s0-3.9,0-9.6c0-6.4-5.7-10.3-11.4-10.3c-5.7,0-11.4,3.9-11.4,10.3c0,5.7,0,5.6,0,9.6
	s1.2,6.4,2.9,8.2C160.6,30.4,163.5,31.9,167.3,31.9z"/>
<path class="st0" d="M99.5,67.9c0,0.1-0.1,0.2-0.2,0.2h-1.1h-1.7c-0.1,0-0.2-0.1-0.2-0.2V47c0-0.2,0.2-0.4,0.4-0.4h13.4
	c0.1,0,0.2,0.1,0.2,0.2V49c0,0.1-0.1,0.2-0.2,0.2H99.5v6.5h8.8c0.1,0,0.2,0.1,0.2,0.2v2.3c0,0.1-0.1,0.2-0.2,0.2h-8.8V67.9z"/>
<path class="st0" d="M116.4,67.9c0,0.1-0.1,0.2-0.2,0.2h-2.8c-0.1,0-0.2-0.1-0.2-0.2V47c0-0.2,0.2-0.4,0.4-0.4h2.6
	c0.1,0,0.2,0.1,0.2,0.2v9h8.4V47c0-0.2,0.2-0.4,0.4-0.4h2.6c0.1,0,0.2,0.1,0.2,0.2v21.2c0,0.1-0.1,0.2-0.2,0.2H125
	c-0.1,0-0.2-0.1-0.2-0.2v-9.4h-8.4V67.9z"/>
<path class="st0" d="M133.3,61.7h-1.7c-0.1,0-0.2-0.1-0.2-0.2v-6.7c0-0.1,0.1-0.2,0.2-0.2h1.7c0.1,0,0.2,0.1,0.2,0.2v6.7
	C133.6,61.6,133.5,61.7,133.3,61.7z"/>
<path class="st0" d="M162.7,59.2h-6.3c-0.1,0-0.2-0.1-0.2-0.2v-1.7c0-0.1,0.1-0.2,0.2-0.2h6.3c0.1,0,0.2,0.1,0.2,0.2V59
	C163,59.1,162.8,59.2,162.7,59.2z"/>
<path class="st0" d="M145.3,56.8l3.5,11.1c0,0.1,0.1,0.2,0.2,0.2h2.9c0.1,0,0.2-0.1,0.2-0.2l1.9-11l0.4-10.1c0-0.1-0.1-0.2-0.2-0.2
	h-2.6c-0.1,0-0.2,0.1-0.2,0.2l-0.3,10.3l-0.9,6.2l-3.1-9.6h-1.8h-1.8l-3.1,9.6l-0.9-6.2l-0.3-10.3c0-0.1-0.1-0.2-0.2-0.2h-2.6
	c-0.1,0-0.2,0.1-0.2,0.2l0.4,10.1l1.9,11c0,0.1,0.1,0.2,0.2,0.2h2.9c0.1,0,0.2-0.1,0.2-0.2L145.3,56.8z"/>
<path class="st0" d="M172.7,68.3c2.3-0.1,3.8-0.9,4.8-2c1-1.2,1.2-2.4,1.2-3c0-0.4,0-1.3,0-2.1c-0.1-2-1-3.2-2.4-4
	c-1.2-0.7-2.1-0.9-3.9-1.2c-3.5-0.7-5.5-1.4-5.5-3.8c0-2.3,1.4-3.1,4.4-3.1s3.8,1.9,3.8,3.2c0,0.1,0.1,0.2,0.2,0.2l2.6,0
	c0.1,0,0.2-0.1,0.2-0.2c0-2.5-1-4-2.9-5.1c-0.2-0.1-1.6-0.8-2.9-0.8c0,0-1,0-2.7,0c-2.6,0-6,1.7-6,4.9c0,0,0,0.1,0,1.9
	c0,0.9,0.7,2.6,2,3.5c1,0.7,2.1,1.2,3.2,1.5c2.2,0.5,3.4,0.6,4.5,1c1.1,0.4,2,1.1,2.1,2.1c0.1,0.8,0.1,1.8,0,2.4
	c-0.1,0.4-0.2,1.2-1.8,1.9c-1.9,0.4-3.6,0.3-4.6,0.1c-0.8-0.2-1.4-0.7-1.8-1.2c-0.4-0.5-0.6-1.9-0.6-2.5c0-0.1-0.1-0.2-0.2-0.2h-2.6
	c-0.1,0-0.3,0.1-0.2,0.2c0,0.9,0.3,3.6,1.6,4.7c1.3,1.1,2.7,1.6,3.9,1.8C170.3,68.5,172.7,68.3,172.7,68.3z"/>
</svg>
