<?xml version="1.0" encoding="utf-8"?>
<!-- Generator: Adobe Illustrator 26.3.1, SVG Export Plug-In . SVG Version: 6.00 Build 0)  -->
<svg version="1.1" xmlns="http://www.w3.org/2000/svg" xmlns:xlink="http://www.w3.org/1999/xlink" x="0px" y="0px"
	 viewBox="0 0 35.9 35.9" style="enable-background:new 0 0 35.9 35.9;" xml:space="preserve">
<style type="text/css">
	.st0{fill:#8ACBC1;stroke:#000000;stroke-width:6.340000e-02;}
	.st1{fill:#CCCCCC;stroke:#000000;stroke-width:4.530000e-02;}
	.st2{fill:none;}
	.st3{fill:#00ABE7;stroke:#000000;stroke-width:4.530000e-02;}
	.st4{display:none;}
	.st5{display:inline;}
	.st6{fill:#00ABE7;stroke:#000000;stroke-width:0.25;}
	.st7{fill:none;stroke:#000000;stroke-width:0.25;}
	.st8{stroke:#000000;stroke-width:0.25;}
	.st9{fill:#EC6608;stroke:#000000;stroke-width:6.340000e-02;}
	.st10{fill:none;stroke:#000000;stroke-width:6.340000e-02;}
	.st11{stroke:#000000;stroke-width:6.340000e-02;}
	.st12{fill:#EC6608;stroke:#000000;stroke-width:4.440000e-02;}
	.st13{fill:none;stroke:#000000;stroke-width:4.440000e-02;}
	.st14{stroke:#000000;stroke-width:4.440000e-02;}
	.st15{fill:#EC6608;stroke:#000000;stroke-width:4.530000e-02;}
	.st16{fill:#00ABE7;stroke:#000000;stroke-width:3.145833e-02;}
	.st17{stroke:#000000;stroke-width:4.402777e-02;}
	.st18{fill:#00ABE7;stroke:#000000;stroke-width:3.145832e-02;}
	.st19{fill:none;stroke:#000000;stroke-width:4.402776e-02;}
</style>
<g id="Ebene_1">
	<g id="Statorronde">
		<path class="st0" d="M18,0c9.9,0,18,8,18,18s-8,18-18,18c-9.9,0-18-8-18-18S8,0,18,0z M6.5,18c0,6.4,5.2,11.5,11.5,11.5
			S29.5,24.3,29.5,18S24.3,6.5,18,6.5C11.6,6.5,6.5,11.6,6.5,18z"/>
	</g>
	<g id="Rotor">
		<path class="st0" d="M18,28.8c6,0,10.8-4.8,10.8-10.8S23.9,7.2,18,7.2C12,7.2,7.2,12.1,7.2,18S12,28.8,18,28.8z"/>
		<path class="st1" d="M19.3,14.7v-1h-2.9v1c-1.3,0.6-2.2,1.8-2.2,3.3c0,2,1.6,3.6,3.6,3.6s3.6-1.6,3.6-3.6
			C21.5,16.6,20.6,15.3,19.3,14.7z"/>
		<circle class="st2" cx="18" cy="18" r="10.8"/>
	</g>
	<g id="RotorFlux">
		<g>
			<path class="st3" d="M17.6,9L17.6,9v19.8l0,0c0,0.1,0.1,0.2,0.2,0.2s0.2-0.1,0.2-0.2l0,0V9l0,0"/>
			<path class="st3" d="M17.4,8.3c-0.1,0.4-0.2,0.6-0.3,0.9l0,0.1c0,0.1,0,0.2,0,0.2c0,0.1,0.1,0.1,0.2,0.1h1.3c0.1,0,0.2,0,0.2-0.1
				c0-0.1,0-0.2,0-0.2c0-0.1-0.2-0.6-0.4-1c-0.1-0.4-0.2-0.8-0.2-1.1C18.1,7.1,18,7,17.9,7s-0.2,0.1-0.2,0.2
				C17.6,7.5,17.5,7.9,17.4,8.3z"/>
		</g>
	</g>
	<g id="RotorWicklg" class="st4">
		<g class="st5">
			<g>
				<path class="st6" d="M44.2,36.4c0-3.1,2.5-5.7,5.7-5.7c3.1,0,5.7,2.5,5.7,5.7s-2.5,5.7-5.7,5.7C46.8,42.1,44.2,39.5,44.2,36.4z"
					/>
				<line class="st7" x1="53.9" y1="32.4" x2="45.9" y2="40.4"/>
				<line class="st7" x1="53.9" y1="40.4" x2="45.9" y2="32.4"/>
			</g>
			<g>
				<g>
					<path class="st6" d="M-18.9-3.3c1.6-2.7,5-3.6,7.7-2.1c2.7,1.6,3.6,5,2.1,7.8c-1.6,2.7-5,3.6-7.7,2.1
						C-19.5,2.9-20.4-0.6-18.9-3.3z"/>
				</g>
				<path class="st8" d="M-15.2-1.2c0.4-0.7,1.3-0.9,1.9-0.5s0.9,1.3,0.5,1.9c-0.4,0.7-1.3,0.9-1.9,0.5C-15.3,0.4-15.6-0.5-15.2-1.2
					z"/>
			</g>
		</g>
		<g class="st5">
			<g>
				<path class="st6" d="M44.2-0.5c0-3.1,2.5-5.7,5.7-5.7c3.1,0,5.7,2.5,5.7,5.7S53,5.2,49.9,5.2S44.2,2.7,44.2-0.5z"/>
				<line class="st7" x1="53.9" y1="-4.5" x2="45.9" y2="3.5"/>
				<line class="st7" x1="53.9" y1="3.5" x2="45.9" y2="-4.5"/>
			</g>
			<g>
				<g>
					<path class="st6" d="M-18.9,39.2c-1.6-2.7-0.6-6.2,2.1-7.8s6.2-0.6,7.8,2.1c1.6,2.7,0.6,6.2-2.1,7.8
						C-13.8,42.9-17.3,41.9-18.9,39.2z"/>
				</g>
				<path class="st8" d="M-15.2,37.1c-0.4-0.7-0.2-1.5,0.5-1.9c0.7-0.4,1.5-0.2,1.9,0.5c0.4,0.7,0.2,1.5-0.5,1.9
					C-13.9,38-14.8,37.8-15.2,37.1z"/>
			</g>
		</g>
	</g>
	<g id="Statorw">
		<g>
			<path class="st9" d="M5.6,25c-0.4-0.7-0.2-1.6,0.5-2c0.7-0.4,1.6-0.2,2,0.5c0.4,0.7,0.2,1.6-0.5,2C6.8,26,6,25.7,5.6,25z"/>
			<line class="st10" x1="7.2" y1="22.9" x2="6.4" y2="25.7"/>
			<line class="st10" x1="8.2" y1="24.7" x2="5.4" y2="23.9"/>
		</g>
		<g>
			<g>
				<path class="st9" d="M28,12.1c-0.4-0.7-0.2-1.6,0.5-2c0.7-0.4,1.6-0.2,2,0.5c0.4,0.7,0.2,1.6-0.5,2C29.3,13,28.4,12.8,28,12.1z"
					/>
			</g>
			<path class="st11" d="M28.9,11.6c-0.1-0.2,0-0.4,0.1-0.5c0.2-0.1,0.4,0,0.5,0.1c0.1,0.2,0,0.4-0.1,0.5
				C29.2,11.8,29,11.7,28.9,11.6z"/>
		</g>
		<g>
			<path class="st12" d="M5.9,10.9c0.3-0.5,0.9-0.6,1.4-0.4c0.5,0.3,0.6,0.9,0.4,1.4c-0.3,0.5-0.9,0.6-1.4,0.4
				C5.8,12,5.7,11.4,5.9,10.9z"/>
			<line class="st13" x1="7.8" y1="11.1" x2="5.8" y2="11.6"/>
			<line class="st13" x1="7.1" y1="12.4" x2="6.6" y2="10.4"/>
		</g>
		<g>
			<g>
				<path class="st12" d="M28.3,23.8c0.3-0.5,0.9-0.6,1.4-0.4c0.5,0.3,0.6,0.9,0.4,1.4c-0.3,0.5-0.9,0.6-1.4,0.4
					C28.2,24.9,28.1,24.3,28.3,23.8z"/>
			</g>
			<path class="st14" d="M29,24.2c0.1-0.1,0.2-0.2,0.3-0.1c0.1,0.1,0.2,0.2,0.1,0.3c-0.1,0.1-0.2,0.2-0.3,0.1
				C29,24.5,28.9,24.3,29,24.2z"/>
		</g>
		<g>
			<path class="st12" d="M18,31.8c-0.6,0-1-0.4-1-1c0-0.6,0.4-1,1-1c0.6,0,1,0.4,1,1C19,31.3,18.6,31.8,18,31.8z"/>
			<line class="st13" x1="17.3" y1="30.1" x2="18.7" y2="31.5"/>
			<line class="st13" x1="18.7" y1="30.1" x2="17.3" y2="31.5"/>
		</g>
		<g>
			<g>
				<path class="st12" d="M18,5.9c-0.6,0-1-0.4-1-1s0.4-1,1-1c0.6,0,1,0.4,1,1C19,5.5,18.6,5.9,18,5.9z"/>
			</g>
			<path class="st14" d="M18,5.2c-0.1,0-0.2-0.1-0.2-0.2c0-0.1,0.1-0.2,0.2-0.2c0.1,0,0.2,0.1,0.2,0.2C18.3,5.1,18.2,5.2,18,5.2z"/>
		</g>
		<g>
			<path class="st15" d="M11.6,6.3L11.6,6.3l-2-3.5l0,0C9.5,2.7,9.4,2.6,9.3,2.7C9.2,2.8,9.1,2.9,9.2,3l0,0l2,3.5l0,0"/>
			<path class="st15" d="M12.2,6.7c-0.1-0.4-0.1-0.6-0.2-0.9l0-0.1c0-0.1-0.1-0.2-0.1-0.2c-0.1,0-0.2,0-0.2,0l-1.1,0.6
				c-0.1,0-0.1,0.1-0.1,0.2c0,0.1,0,0.2,0.1,0.2c0.1,0.1,0.5,0.4,0.8,0.7c0.3,0.3,0.6,0.6,0.8,0.8c0.1,0.1,0.2,0.1,0.3,0.1
				s0.2-0.2,0.1-0.3C12.4,7.6,12.3,7.2,12.2,6.7z"/>
		</g>
		<g>
			<path class="st15" d="M26.1,31.4L26.1,31.4L24,27.7l0,0c-0.1-0.1-0.2-0.2-0.3-0.1c-0.1,0.1-0.2,0.2-0.1,0.3l0,0l2.1,3.7l0,0"/>
			<path class="st15" d="M26.7,31.8c-0.1-0.4-0.1-0.6-0.2-0.9l0-0.1c0-0.1-0.1-0.2-0.1-0.2c-0.1,0-0.2,0-0.2,0L25,31.2
				c-0.1,0-0.1,0.1-0.1,0.2c0,0.1,0,0.2,0.1,0.2c0.1,0.1,0.5,0.4,0.8,0.7c0.3,0.3,0.6,0.6,0.8,0.8c0.1,0.1,0.2,0.1,0.3,0.1
				C27,33.1,27,33,27,32.9C26.9,32.7,26.8,32.3,26.7,31.8z"/>
		</g>
	</g>
</g>
<g id="WoundRotor">
	<g id="Rotor_00000027600718387086062450000013269548975406384773_">
		<circle class="st2" cx="17.9" cy="18" r="10.8"/>
	</g>
	<g>
		<path class="st1" d="M9.4,11.5c-1.4,1.8-2.3,4-2.3,6.5c0,2.4,0.8,4.7,2.2,6.5l2.7,0V11.5L9.4,11.5z"/>
		<path class="st1" d="M28.6,18c0-2.4-0.8-4.7-2.2-6.5l-2.5,0v12.9l2.6,0C28,22.6,28.6,20.4,28.6,18z"/>
	</g>
	<g>
		<g>
			<path class="st16" d="M10,13.9c-0.5,0-1-0.4-1-1c0-0.5,0.4-1,1-1c0.5,0,1,0.4,1,1S10.6,13.9,10,13.9z"/>
		</g>
		<path class="st17" d="M10,13.2c-0.1,0-0.2-0.1-0.2-0.2c0-0.1,0.1-0.2,0.2-0.2s0.2,0.1,0.2,0.2C10.2,13.1,10.1,13.2,10,13.2z"/>
	</g>
	<g>
		<g>
			<path class="st16" d="M10,15.9c-0.5,0-1-0.4-1-1c0-0.5,0.4-1,1-1c0.5,0,1,0.4,1,1S10.6,15.9,10,15.9z"/>
		</g>
		<path class="st17" d="M10,15.2c-0.1,0-0.2-0.1-0.2-0.2c0-0.1,0.1-0.2,0.2-0.2s0.2,0.1,0.2,0.2C10.2,15.1,10.1,15.2,10,15.2z"/>
	</g>
	<g>
		<g>
			<path class="st16" d="M10,17.9c-0.5,0-1-0.4-1-1c0-0.5,0.4-1,1-1c0.5,0,1,0.4,1,1S10.6,17.9,10,17.9z"/>
		</g>
		<path class="st17" d="M10,17.2c-0.1,0-0.2-0.1-0.2-0.2s0.1-0.2,0.2-0.2s0.2,0.1,0.2,0.2C10.2,17.1,10.1,17.2,10,17.2z"/>
	</g>
	<g>
		<g>
			<path class="st16" d="M10,19.9c-0.5,0-1-0.4-1-1c0-0.5,0.4-1,1-1c0.5,0,1,0.4,1,1S10.6,19.9,10,19.9z"/>
		</g>
		<path class="st17" d="M10,19.2c-0.1,0-0.2-0.1-0.2-0.2s0.1-0.2,0.2-0.2s0.2,0.1,0.2,0.2C10.2,19.1,10.1,19.2,10,19.2z"/>
	</g>
	<g>
		<g>
			<path class="st16" d="M10,21.9c-0.5,0-1-0.4-1-1c0-0.5,0.4-1,1-1c0.5,0,1,0.4,1,1S10.6,21.9,10,21.9z"/>
		</g>
		<path class="st17" d="M10,21.2c-0.1,0-0.2-0.1-0.2-0.2s0.1-0.2,0.2-0.2s0.2,0.1,0.2,0.2C10.2,21.1,10.1,21.2,10,21.2z"/>
	</g>
	<g>
		<g>
			<path class="st16" d="M10,23.9c-0.5,0-1-0.4-1-1c0-0.5,0.4-1,1-1c0.5,0,1,0.4,1,1S10.6,23.9,10,23.9z"/>
		</g>
		<path class="st17" d="M10,23.2c-0.1,0-0.2-0.1-0.2-0.2s0.1-0.2,0.2-0.2s0.2,0.1,0.2,0.2C10.2,23.1,10.1,23.2,10,23.2z"/>
	</g>
	<g>
		<path class="st18" d="M26,13.9c-0.5,0-1-0.4-1-1c0-0.5,0.4-1,1-1c0.5,0,1,0.4,1,1C27,13.5,26.6,13.9,26,13.9z"/>
		<line class="st19" x1="25.3" y1="12.2" x2="26.7" y2="13.6"/>
		<line class="st19" x1="26.7" y1="12.2" x2="25.3" y2="13.6"/>
	</g>
	<g>
		<path class="st18" d="M26,15.9c-0.5,0-1-0.4-1-1c0-0.5,0.4-1,1-1c0.5,0,1,0.4,1,1C27,15.5,26.6,15.9,26,15.9z"/>
		<line class="st19" x1="25.3" y1="14.2" x2="26.7" y2="15.6"/>
		<line class="st19" x1="26.7" y1="14.2" x2="25.3" y2="15.6"/>
	</g>
	<g>
		<path class="st18" d="M26,17.9c-0.5,0-1-0.4-1-1c0-0.5,0.4-1,1-1c0.5,0,1,0.4,1,1S26.6,17.9,26,17.9z"/>
		<line class="st19" x1="25.3" y1="16.2" x2="26.7" y2="17.6"/>
		<line class="st19" x1="26.7" y1="16.2" x2="25.3" y2="17.6"/>
	</g>
	<g>
		<path class="st18" d="M26,19.9c-0.5,0-1-0.4-1-1c0-0.5,0.4-1,1-1c0.5,0,1,0.4,1,1S26.6,19.9,26,19.9z"/>
		<line class="st19" x1="25.3" y1="18.2" x2="26.7" y2="19.6"/>
		<line class="st19" x1="26.7" y1="18.2" x2="25.3" y2="19.6"/>
	</g>
	<g>
		<path class="st18" d="M26,21.9c-0.5,0-1-0.4-1-1c0-0.5,0.4-1,1-1c0.5,0,1,0.4,1,1S26.6,21.9,26,21.9z"/>
		<line class="st19" x1="25.3" y1="20.2" x2="26.7" y2="21.6"/>
		<line class="st19" x1="26.7" y1="20.2" x2="25.3" y2="21.6"/>
	</g>
	<g>
		<path class="st18" d="M26,23.9c-0.5,0-1-0.4-1-1c0-0.5,0.4-1,1-1c0.5,0,1,0.4,1,1S26.6,23.9,26,23.9z"/>
		<line class="st19" x1="25.3" y1="22.2" x2="26.7" y2="23.6"/>
		<line class="st19" x1="26.7" y1="22.2" x2="25.3" y2="23.6"/>
	</g>
</g>
</svg>
